<?xml version="1.0"?>
<svg xmlns="http://www.w3.org/2000/svg" xmlns:xlink="http://www.w3.org/1999/xlink" xmlns:svgjs="http://svgjs.com/svgjs" version="1.1" width="512" height="512" x="0" y="0" viewBox="0 0 128 128" style="enable-background:new 0 0 512 512" xml:space="preserve" class=""><g><g xmlns="http://www.w3.org/2000/svg"><path d="m12.5 55.439a1.751 1.751 0 0 0 -1.75 1.75v7.75a1.75 1.75 0 0 0 3.5 0v-7.75a1.751 1.751 0 0 0 -1.75-1.75z" fill="#ecb2b0" data-original="#000000" style=""/><path d="m34.463 62.1a16.75 16.75 0 1 0 16.75 16.75 16.769 16.769 0 0 0 -16.75-16.75zm0 30a13.25 13.25 0 1 1 13.25-13.25 13.265 13.265 0 0 1 -13.25 13.25z" fill="#ecb2b0" data-original="#000000" style=""/><path d="m115.5 88.75h-23.44l.186-1.808v-.023l2.4-23.3a.1.1 0 0 1 0-.017l1.954-18.923a1.751 1.751 0 0 0 -1.74-1.929h-31.806a13.7 13.7 0 0 0 -10-8.051v-8.949a1.751 1.751 0 0 0 -1.754-1.75h-12.09v-7.437h9.919a1.75 1.75 0 0 0 1.75-1.75 8.41 8.41 0 0 0 -7.529-8.378l-15.676-1.675a1.75 1.75 0 0 0 -1.936 1.74v8.313a1.751 1.751 0 0 0 1.75 1.75h2.222v7.437h-12.08a1.751 1.751 0 0 0 -1.75 1.75v8.95a13.769 13.769 0 0 0 -11.13 13.49v67.31a7.759 7.759 0 0 0 7.75 7.75h43.93a7.707 7.707 0 0 0 4.312-1.314 1.745 1.745 0 0 0 1.688 1.314h59.07a1.751 1.751 0 0 0 1.75-1.75v-25a7.759 7.759 0 0 0 -7.75-7.75zm4.25 7.75v.25h-35.5v-.25a4.255 4.255 0 0 1 4.25-4.25h27a4.255 4.255 0 0 1 4.25 4.25zm-31.25-7.75a7.759 7.759 0 0 0 -7.75 7.75v10.18h-16.741l-1.878-18.19h26.437l-.027.26zm-28.771-23.56h31.24l-2.04 19.8h-27.159l-.306-2.962zm31.6-3.5h-31.965l-1.593-15.44h35.149zm-62.091-53.243 13.74 1.468a4.919 4.919 0 0 1 4.083 3.148h-9.577-.024-.024-5.952-.024-.024-2.2zm3.972 8.116h2.5v7.437h-2.5zm16.34 10.937v6.94h-30.17v-6.94zm6.88 92.25h-43.93a4.255 4.255 0 0 1 -4.25-4.25v-67.31a10.261 10.261 0 0 1 10.25-10.25h31.93a10.219 10.219 0 0 1 8.688 4.81h-3.288a1.75 1.75 0 0 0 -1.741 1.93l3.969 38.443.391 3.8v.01l2.231 21.587v6.98a4.255 4.255 0 0 1 -4.25 4.25zm7.75-4.25v-5.32h16.57v9.57h-16.57zm55.57 4.25h-35.5v-19.5h35.5z" fill="#ecb2b0" data-original="#000000" style=""/><path d="m102 102.583c-3.4 0-6.167 3.328-6.167 7.417s2.767 7.417 6.167 7.417 6.167-3.328 6.167-7.417-2.767-7.417-6.167-7.417zm0 11.334c-1.445 0-2.667-1.794-2.667-3.917s1.222-3.917 2.667-3.917 2.667 1.794 2.667 3.917-1.222 3.917-2.667 3.917z" fill="#ecb2b0" data-original="#000000" style=""/></g></g></svg>
