<?xml version="1.0" encoding="iso-8859-1"?>
<!-- Generator: Adobe Illustrator 19.0.0, SVG Export Plug-In . SVG Version: 6.00 Build 0)  -->
<svg version="1.1" id="Capa_1" xmlns="http://www.w3.org/2000/svg" xmlns:xlink="http://www.w3.org/1999/xlink" x="0px" y="0px"
	 viewBox="0 0 512 512" style="enable-background:new 0 0 512 512;" xml:space="preserve">
<path style="fill:#FFDCCE;" d="M480,76L320,204l-75.1,2.164c-4.264,0.123-8.46,1.097-12.342,2.865l-65.701,29.923
	c-12.245,5.577-17.998,20.296-12.189,32.434c5.63,11.765,19.671,16.903,31.593,11.473l66.812-30.429l0.294,0.927l13.902,204.914
	l21.901,18.162L481,276L480,76z"/>
<polygon style="fill:#FFCBB6;" points="480,76 462.664,91.305 463.5,258.5 273.62,456.895 285.097,480.688 481,276 "/>
<path style="fill:#FFEEE7;" d="M367.028,423.405c11.293,6.939,26.074,3.41,33.013-7.884c6.939-11.293,3.41-26.072-7.882-33.012
	l13.631,8.375c11.293,6.939,26.074,3.41,33.013-7.884s3.41-26.074-7.884-33.013L287.48,261.851l-4.615-2.836l0,0l-5.191-3.19
	l-0.308,0.501c-1.842-0.692-3.746-1.216-5.693-1.56L120,228L64,356l113.168,63.418l26.874,16.513l0,0l85.463,52.513
	c11.293,6.939,26.074,3.41,33.013-7.884c6.939-11.293,3.41-26.072-7.882-33.012l13.631,8.376c11.293,6.939,26.074,3.41,33.013-7.884
	c6.939-11.293,3.41-26.073-7.884-33.013L367.028,423.405z"/>
<g>
	<path style="fill:#FFDCCE;" d="M415.79,374.885l-50.619-31.104c-3.741-2.299-8.636-1.152-10.968,2.569l-5.807,9.269l56.911,34.969
		c11.45,7.036,26.89,3.615,33.72-7.959c1.59-2.694,2.592-5.577,3.046-8.498C434.48,379.413,424.175,380.037,415.79,374.885z"/>
	<path style="fill:#FFDCCE;" d="M376.028,407.405l-33.42-20.535c-3.725-2.289-8.597-1.163-10.941,2.527l-5.61,8.833l40.521,24.898
		c10.924,6.713,25.415,4.065,32.721-6.472c2.327-3.355,3.668-7.068,4.119-10.821C395.744,411.861,384.828,412.812,376.028,407.405z"
		/>
	<path style="fill:#FFDCCE;" d="M342.017,442.175l-20.541-12.621c-3.749-2.303-8.654-1.147-10.979,2.588l-5.794,9.305l22.906,14.075
		c9.16,5.628,21.057,4.964,29.14-2.125c3.109-2.726,5.17-5.921,6.471-9.281C356.478,446.71,348.647,446.249,342.017,442.175z"/>
	<path style="fill:#FFDCCE;" d="M300.181,477.769l-21.684-13.324l-9.201,11.582l20.209,12.418
		c11.293,6.939,26.074,3.41,33.013-7.884c0.361-0.587,0.687-1.186,0.992-1.791C316.334,482.363,307.522,482.279,300.181,477.769z"/>
	<polygon style="fill:#FFDCCE;" points="64,356 177.168,419.418 188.602,400.808 74.602,331.766 	"/>
	<path style="fill:#FFDCCE;" d="M148.478,327.696c6.879-11.148,21.402-14.699,32.63-8.062c11.583,6.847,15.001,22.276,7.936,33.727
		l-41.725,67.623c-6.96,11.28-21.747,14.783-33.027,7.822l0,0c-11.28-6.96-14.782-21.747-7.822-33.027L148.478,327.696z"/>
</g>
<path style="fill:#FFCBB6;" d="M118.719,408.029l42.009-68.083c6.341-10.276,19.174-14.09,29.938-9.427
	c-1.914-4.412-5.14-8.274-9.557-10.885c-11.228-6.637-25.751-3.086-32.63,8.062l-42.009,68.083
	c-6.96,11.28-3.458,26.067,7.822,33.027c0.944,0.583,1.914,1.085,2.901,1.523C114.115,423.345,114.409,415.015,118.719,408.029z"/>
<path style="fill:#FFDCCE;" d="M180.926,366.517c6.879-11.148,21.402-14.699,32.63-8.062c11.583,6.847,15.001,22.276,7.936,33.727
	l-33.323,54.006c-6.96,11.28-21.747,14.782-33.027,7.822l0,0c-11.28-6.96-14.782-21.747-7.822-33.027L180.926,366.517z"/>
<path style="fill:#FFCBB6;" d="M159.569,433.234l33.607-54.466c6.341-10.276,19.174-14.09,29.938-9.427
	c-1.914-4.412-5.14-8.274-9.557-10.885c-11.228-6.637-25.751-3.086-32.63,8.062l-33.607,54.466
	c-6.96,11.28-3.458,26.067,7.822,33.027c0.944,0.583,1.914,1.085,2.901,1.523C154.965,448.55,155.258,440.22,159.569,433.234z"/>
<path style="fill:#FFDCCE;" d="M213.374,405.339c6.879-11.148,21.402-14.699,32.63-8.062c11.583,6.847,15.001,22.276,7.936,33.727
	l-24.921,40.39c-6.96,11.28-21.747,14.782-33.027,7.822l0,0c-11.28-6.96-14.782-21.747-7.822-33.027L213.374,405.339z"/>
<path style="fill:#FFCBB6;" d="M199.955,481.18c-2.601-6.756-2.131-14.605,1.964-21.241l25.205-40.85
	c6.132-9.939,18.339-13.832,28.872-9.859c-1.838-4.855-5.22-9.133-9.992-11.953c-11.228-6.637-25.751-3.086-32.63,8.062
	l-25.205,40.85c-6.96,11.28-3.458,26.067,7.822,33.027l0,0C197.272,480.007,198.6,480.656,199.955,481.18z"/>
<path style="fill:#FFDCCE;" d="M245.822,444.161c6.879-11.148,21.402-14.699,32.63-8.062c11.583,6.847,15.001,22.276,7.936,33.727
	l-16.52,26.773c-6.96,11.28-21.747,14.782-33.027,7.822l0,0c-11.28-6.96-14.782-21.747-7.822-33.027L245.822,444.161z"/>
<path style="fill:#FFCBB6;" d="M243.269,485.644l16.803-27.233c6.061-9.823,18.055-13.743,28.502-9.998
	c-1.805-5.003-5.233-9.425-10.122-12.315c-11.228-6.637-25.751-3.086-32.63,8.062l-16.803,27.233
	c-6.96,11.28-3.458,26.067,7.822,33.027l0,0c1.398,0.863,2.85,1.563,4.334,2.11C238.724,499.856,239.245,492.165,243.269,485.644z"
	/>
<path style="fill:#FFDCCE;" d="M166.365,239.176c-12.063,5.494-17.388,19.726-11.894,31.789s19.726,17.388,31.789,11.894
	l72.106-32.84L238.44,212L166.365,239.176z"/>
<path style="fill:#808E9B;" d="M120.887,208.944L0,157v215l48.408,20.746c4.153,1.78,8.955-0.23,10.601-4.438l66.169-169.099
	C126.752,215.19,124.853,210.648,120.887,208.944z"/>
<path style="fill:#6B7B8B;" d="M0,372l48.408,20.746c4.153,1.78,8.955-0.23,10.601-4.438l7.606-19.437L0,335.983V372z"/>
<path style="fill:#55697A;" d="M324.263,190.851l138.633,136.785c3.042,3.002,7.907,3.082,11.047,0.182L512,292.667V4
	L324.42,179.312C321.099,182.415,321.028,187.659,324.263,190.851z"/>
<path style="fill:#40566A;" d="M447.015,311.966l15.882,15.67c3.042,3.002,7.907,3.082,11.047,0.182L512,292.667v-46.161
	L447.015,311.966z"/>
<g>
</g>
<g>
</g>
<g>
</g>
<g>
</g>
<g>
</g>
<g>
</g>
<g>
</g>
<g>
</g>
<g>
</g>
<g>
</g>
<g>
</g>
<g>
</g>
<g>
</g>
<g>
</g>
<g>
</g>
</svg>
