<?xml version="1.0" encoding="UTF-8" standalone="no"?>
<svg
   xmlns:dc="http://purl.org/dc/elements/1.1/"
   xmlns:cc="http://creativecommons.org/ns#"
   xmlns:rdf="http://www.w3.org/1999/02/22-rdf-syntax-ns#"
   xmlns:svg="http://www.w3.org/2000/svg"
   xmlns="http://www.w3.org/2000/svg"
   viewBox="0 0 2664.6533 1314.6667"
   height="1314.6667"
   width="2664.6533"
   xml:space="preserve"
   id="svg2"
   version="1.1"><metadata
     id="metadata8"><rdf:RDF><cc:Work
         rdf:about=""><dc:format>image/svg+xml</dc:format><dc:type
           rdf:resource="http://purl.org/dc/dcmitype/StillImage" /></cc:Work></rdf:RDF></metadata><defs
     id="defs6"><clipPath
       id="clipPath18"
       clipPathUnits="userSpaceOnUse"><path
         id="path16"
         d="M 0,986 H 1998.492 V 0 H 0 Z" /></clipPath></defs><g
     transform="matrix(1.3333333,0,0,-1.3333333,0,1314.6667)"
     id="g10"><g
       id="g12"><g
         clip-path="url(#clipPath18)"
         id="g14"><g
           transform="translate(69.8374,970.2646)"
           id="g20"><path
             id="path22"
             style="fill:#000000;fill-opacity:1;fill-rule:nonzero;stroke:none"
             d="m 0,0 -17.373,-0.46 c -6.771,-0.234 -9.566,-0.82 -11.315,-3.381 -1.172,-1.758 -1.749,-3.155 -1.983,-4.084 -0.235,-0.938 -0.586,-1.407 -1.281,-1.407 -0.82,0 -1.054,0.587 -1.054,1.867 0,1.866 2.217,12.486 2.452,13.415 0.351,1.515 0.694,2.218 1.397,2.218 0.938,0 2.101,-1.163 5.013,-1.397 3.39,-0.352 7.817,-0.586 11.666,-0.586 h 46.187 c 3.733,0 6.302,0.351 8.051,0.586 1.749,0.351 2.687,0.585 3.147,0.585 0.82,0 0.937,-0.703 0.937,-2.452 0,-2.452 -0.351,-10.503 -0.351,-13.532 -0.118,-1.163 -0.352,-1.866 -1.046,-1.866 -0.938,0 -1.172,0.586 -1.289,2.335 l -0.117,1.28 c -0.226,3.038 -3.381,6.302 -13.758,6.536 L 14.587,0 v -47.819 c 0,-10.728 0,-19.943 0.577,-24.964 0.352,-3.264 1.055,-5.824 4.553,-6.293 1.632,-0.235 4.201,-0.469 5.95,-0.469 1.281,0 1.867,-0.351 1.867,-0.929 0,-0.82 -0.938,-1.172 -2.218,-1.172 -7.7,0 -15.047,0.352 -18.311,0.352 -2.687,0 -10.034,-0.352 -14.695,-0.352 -1.524,0 -2.335,0.352 -2.335,1.172 0,0.578 0.468,0.929 1.866,0.929 1.749,0 3.146,0.234 4.201,0.469 2.326,0.469 3.029,3.029 3.381,6.41 C 0,-67.762 0,-58.547 0,-47.819 Z" /></g><g
           transform="translate(190.9257,931.3081)"
           id="g24"><path
             id="path26"
             style="fill:#000000;fill-opacity:1;fill-rule:nonzero;stroke:none"
             d="m 0,0 c 0.226,0 0.577,0.117 0.577,0.703 v 2.101 c 0,15.047 -0.117,18.662 -0.234,21.808 -0.235,3.381 -1.163,4.436 -4.427,5.365 -0.82,0.234 -2.569,0.352 -3.967,0.352 -1.172,0 -1.749,0.351 -1.749,1.054 0,0.695 0.695,0.929 2.218,0.929 5.481,0 12.712,-0.234 15.39,-0.234 2.452,0 9.213,0.234 13.18,0.234 1.515,0 2.218,-0.234 2.218,-0.929 0,-0.703 -0.703,-1.054 -1.866,-1.054 -0.82,0 -1.749,-0.118 -3.029,-0.352 -2.687,-0.469 -3.498,-1.867 -3.733,-5.365 -0.234,-3.146 -0.234,-5.95 -0.234,-20.997 v -17.49 c 0,-9.097 0,-16.914 0.469,-21.232 0.342,-2.795 0.928,-4.661 4.075,-5.13 1.406,-0.234 3.615,-0.351 5.256,-0.351 1.046,0 1.632,-0.586 1.632,-1.046 0,-0.703 -0.821,-1.055 -2.101,-1.055 -6.654,0 -13.415,0.352 -16.21,0.352 -2.335,0 -9.566,-0.352 -13.532,-0.352 -1.398,0 -2.218,0.352 -2.218,1.055 0,0.46 0.469,1.046 1.632,1.046 1.632,0 2.803,0.117 3.732,0.351 2.101,0.469 2.687,2.335 3.029,5.247 0.469,4.201 0.469,11.784 0.469,20.881 v 7.582 c 0,0.351 -0.351,0.586 -0.577,0.586 h -38.731 c -0.352,0 -0.694,-0.118 -0.694,-0.586 v -7.582 c 0,-9.097 0.117,-16.68 0.577,-20.998 0.351,-2.795 0.937,-4.661 3.967,-5.13 1.397,-0.234 3.732,-0.351 5.247,-0.351 1.172,0 1.632,-0.586 1.632,-1.046 0,-0.703 -0.812,-1.055 -2.092,-1.055 -6.654,0 -13.767,0.352 -16.679,0.352 -2.335,0 -9.105,-0.352 -13.181,-0.352 -1.289,0 -1.983,0.352 -1.983,1.055 0,0.46 0.342,1.046 1.632,1.046 1.514,0 2.678,0.117 3.615,0.351 2.101,0.469 2.678,2.335 3.029,5.247 0.469,4.201 0.469,12.018 0.469,21.115 v 17.49 c 0,15.047 0,17.851 -0.117,20.997 -0.234,3.381 -1.163,4.436 -4.436,5.365 -0.811,0.234 -2.56,0.352 -4.075,0.352 -1.055,0 -1.749,0.351 -1.749,1.054 0,0.695 0.812,0.929 2.209,0.929 5.482,0 12.252,-0.234 15.047,-0.234 2.452,0 9.565,0.234 13.649,0.234 1.398,0 2.101,-0.234 2.101,-0.929 0,-0.703 -0.586,-1.054 -1.866,-1.054 -0.821,0 -1.749,-0.118 -2.921,-0.352 -2.795,-0.469 -3.615,-1.867 -3.85,-5.365 -0.225,-3.146 -0.225,-6.761 -0.225,-21.808 V 0.703 C -39.425,0.117 -39.083,0 -38.731,0 Z" /></g><g
           transform="translate(241.7739,934.9233)"
           id="g28"><path
             id="path30"
             style="fill:#000000;fill-opacity:1;fill-rule:nonzero;stroke:none"
             d="m 0,0 c 0,15.047 0,17.851 -0.117,20.997 -0.235,3.381 -1.163,4.436 -4.436,5.364 -0.811,0.235 -2.56,0.352 -4.075,0.352 -1.055,0 -1.749,0.352 -1.749,1.055 0,0.694 0.812,0.929 2.326,0.929 5.364,0 11.901,-0.235 14.813,-0.235 3.272,0 26.009,-0.117 27.993,0 1.867,0.118 3.507,0.469 4.319,0.586 0.586,0.118 1.163,0.469 1.632,0.469 0.585,0 0.703,-0.469 0.703,-0.937 0,-0.704 -0.586,-1.867 -0.821,-6.42 -0.117,-1.046 -0.351,-5.364 -0.577,-6.527 -0.117,-0.469 -0.351,-1.632 -1.172,-1.632 -0.694,0 -0.811,0.469 -0.811,1.28 0,0.703 -0.117,2.452 -0.703,3.615 -0.821,1.75 -1.632,3.156 -6.762,3.616 -1.749,0.234 -14.001,0.468 -16.102,0.468 -0.469,0 -0.694,-0.351 -0.694,-0.928 V -2.443 c 0,-0.586 0.117,-1.055 0.694,-1.055 2.335,0 15.633,0 17.968,0.234 2.444,0.235 3.958,0.469 4.896,1.515 0.82,0.703 1.163,1.289 1.632,1.289 0.468,0 0.82,-0.469 0.82,-1.055 0,-0.577 -0.235,-2.217 -0.82,-7.23 -0.235,-1.984 -0.469,-5.95 -0.469,-6.645 0,-0.82 -0.117,-2.217 -1.046,-2.217 -0.703,0 -0.938,0.351 -0.938,0.811 -0.117,1.055 -0.117,2.335 -0.342,3.615 -0.586,1.984 -1.867,3.507 -5.716,3.85 -1.866,0.234 -13.533,0.469 -16.102,0.469 -0.46,0 -0.577,-0.469 -0.577,-1.046 v -7.934 c 0,-3.381 -0.118,-11.783 0,-14.696 0.225,-6.77 3.38,-8.285 13.875,-8.285 2.687,0 6.996,0.117 9.683,1.289 2.569,1.163 3.732,3.264 4.435,7.348 0.235,1.046 0.46,1.515 1.163,1.515 0.821,0 0.929,-1.28 0.929,-2.335 0,-2.218 -0.811,-8.98 -1.397,-10.963 -0.695,-2.57 -1.632,-2.57 -5.482,-2.57 -7.7,0 -13.875,0.118 -18.897,0.352 -5.013,0.117 -8.862,0.234 -11.891,0.234 -1.172,0 -3.39,-0.117 -5.833,-0.117 -2.453,-0.117 -5.022,-0.234 -7.114,-0.234 -1.289,0 -1.983,0.351 -1.983,1.054 0,0.46 0.343,1.046 1.632,1.046 1.514,0 2.677,0.118 3.615,0.352 2.101,0.469 2.678,2.335 3.029,5.247 C 0,-34.404 0,-26.587 0,-17.49 Z" /></g><g
           transform="translate(356.4345,976.332)"
           id="g32"><path
             id="path34"
             style="fill:#000000;fill-opacity:1;fill-rule:nonzero;stroke:none"
             d="m 0,0 c 0.352,1.983 1.055,3.038 1.983,3.038 0.938,0 1.641,-0.586 3.156,-3.624 L 36.982,-66.364 68.708,0.234 c 0.928,1.867 1.514,2.804 2.56,2.804 1.055,0 1.749,-1.172 2.101,-3.624 l 10.611,-72.08 c 1.055,-7.348 2.218,-10.729 5.716,-11.783 3.39,-1.046 5.716,-1.163 7.24,-1.163 1.045,0 1.857,-0.117 1.857,-0.821 0,-0.928 -1.397,-1.28 -3.029,-1.28 -2.912,0 -19.014,0.352 -23.676,0.703 -2.686,0.235 -3.38,0.577 -3.38,1.281 0,0.585 0.459,0.937 1.28,1.28 0.703,0.234 1.046,1.749 0.586,5.021 l -7.005,51.317 h -0.46 L 37.676,-81.06 c -2.677,-5.481 -3.263,-6.536 -4.309,-6.536 -1.055,0 -2.218,2.335 -4.084,5.833 -2.804,5.365 -12.018,23.216 -13.416,26.479 -1.046,2.444 -8.051,17.148 -12.135,25.893 h -0.46 l -6.067,-46.422 c -0.234,-2.1 -0.351,-3.615 -0.351,-5.481 0,-2.218 1.514,-3.264 3.498,-3.732 2.1,-0.469 3.732,-0.586 4.904,-0.586 0.929,0 1.749,-0.235 1.749,-0.821 0,-1.046 -1.055,-1.28 -2.804,-1.28 -4.895,0 -10.142,0.352 -12.243,0.352 -2.218,0 -7.816,-0.352 -11.549,-0.352 -1.163,0 -2.101,0.234 -2.101,1.28 0,0.586 0.704,0.821 1.866,0.821 0.938,0 1.749,0 3.498,0.351 3.264,0.703 4.202,5.247 4.788,9.214 z" /></g><g
           transform="translate(501.9013,919.0649)"
           id="g36"><path
             id="path38"
             style="fill:#000000;fill-opacity:1;fill-rule:nonzero;stroke:none"
             d="m 0,0 c 0.469,0 0.586,0.234 0.469,0.586 l -9.683,25.189 c -0.118,0.352 -0.235,0.938 -0.469,0.938 -0.352,0 -0.469,-0.586 -0.586,-0.938 L -20.177,0.694 C -20.412,0.234 -20.177,0 -19.826,0 Z m -21.926,-5.481 c -0.586,0 -0.703,-0.118 -0.938,-0.704 l -5.481,-13.298 c -1.046,-2.443 -1.515,-4.895 -1.515,-6.059 0,-1.749 0.929,-2.803 4.084,-2.803 h 1.515 c 1.28,0 1.514,-0.469 1.514,-1.046 0,-0.82 -0.586,-1.055 -1.631,-1.055 -3.381,0 -8.168,0.352 -11.432,0.352 -1.046,0 -6.527,-0.352 -11.901,-0.352 -1.28,0 -1.866,0.235 -1.866,1.055 0,0.577 0.351,1.046 1.172,1.046 0.928,0 2.101,0.117 3.03,0.117 4.669,0.703 6.418,3.732 8.519,8.745 l 26.821,62.406 c 1.173,2.795 1.984,3.967 3.039,3.967 1.515,0 1.983,-0.937 3.029,-3.156 2.452,-5.481 19.591,-46.069 26.127,-61.116 3.967,-8.98 6.879,-10.26 8.745,-10.612 1.524,-0.234 2.687,-0.351 3.85,-0.351 0.938,0 1.407,-0.352 1.407,-1.046 0,-0.82 -0.587,-1.055 -4.436,-1.055 -3.616,0 -11.08,0 -19.717,0.235 -1.866,0.117 -3.03,0.117 -3.03,0.82 0,0.577 0.235,0.929 1.281,1.046 0.703,0.117 1.406,1.054 0.937,2.218 L 3.264,-6.185 c -0.235,0.586 -0.587,0.704 -1.046,0.704 z" /></g><g
           transform="translate(545.4106,889.8994)"
           id="g40"><path
             id="path42"
             style="fill:#000000;fill-opacity:1;fill-rule:nonzero;stroke:none"
             d="m 0,0 c -1.632,0.703 -1.983,1.172 -1.983,3.39 0,5.364 0.468,11.54 0.586,13.181 0,1.514 0.468,2.56 1.28,2.56 0.937,0 1.046,-0.928 1.046,-1.632 0,-1.28 0.351,-3.381 0.937,-5.13 2.218,-7.348 9.917,-9.8 16.327,-9.8 8.863,0 14.236,5.599 14.236,12.595 0,4.318 -1.055,8.637 -10.152,14.002 l -5.95,3.498 C 4.201,39.777 0.234,46.43 0.234,55.175 c 0,12.126 11.666,19.943 25.893,19.943 6.644,0 11.901,-0.929 14.579,-1.632 0.937,-0.235 1.397,-0.586 1.397,-1.28 0,-1.289 -0.343,-4.084 -0.343,-11.901 0,-2.1 -0.468,-3.146 -1.289,-3.146 -0.694,0 -1.046,0.586 -1.046,1.749 0,0.928 -0.469,3.967 -2.687,6.527 -1.514,1.866 -4.778,4.67 -11.431,4.67 -7.348,0 -13.993,-3.85 -13.993,-10.611 0,-4.436 1.632,-7.934 10.846,-13.064 l 4.201,-2.335 C 39.894,36.63 44.086,29.048 44.086,20.069 44.086,12.721 41.292,6.771 33.827,1.523 28.931,-1.975 22.16,-2.561 16.679,-2.561 10.729,-2.561 4.436,-1.975 0,0" /></g><g
           transform="translate(627.9936,930.4966)"
           id="g44"><path
             id="path46"
             style="fill:#000000;fill-opacity:1;fill-rule:nonzero;stroke:none"
             d="m 0,0 h 0.469 c 3.498,3.732 18.427,18.428 21.457,21.809 2.912,3.263 5.13,5.598 5.13,7.347 0,1.055 -0.46,1.749 -1.398,1.984 -0.929,0.235 -1.397,0.469 -1.397,1.055 0,0.694 0.577,0.929 1.632,0.929 2.217,0 7.816,-0.235 10.611,-0.235 3.156,0 8.871,0.235 12.018,0.235 1.046,0 1.749,-0.235 1.749,-0.929 0,-0.703 -0.586,-1.055 -1.515,-1.055 -1.524,0 -4.084,-0.469 -5.95,-1.163 C 39.542,28.805 36.27,26.704 31.96,22.629 28.687,19.591 13.415,5.13 10.26,1.515 c 3.615,-4.67 23.801,-25.659 27.759,-29.391 4.552,-4.084 8.52,-8.403 14.001,-10.621 3.029,-1.28 5.13,-1.28 6.302,-1.28 0.811,0 1.397,-0.469 1.397,-1.046 0,-0.703 -0.586,-1.054 -2.452,-1.054 h -8.979 c -3.03,0 -4.896,0 -7.114,0.234 -5.482,0.469 -8.871,2.569 -13.298,6.419 C 23.44,-31.375 3.732,-8.52 1.515,-5.481 L 0.469,-4.084 H 0 v -8.979 c 0,-9.097 0,-16.914 0.234,-21.232 0.235,-2.795 1.163,-4.662 3.733,-5.13 1.397,-0.235 3.732,-0.352 5.012,-0.352 0.821,0 1.398,-0.586 1.398,-1.046 0,-0.703 -0.812,-1.054 -1.983,-1.054 -5.717,0 -13.064,0.351 -15.624,0.351 -2.336,0 -8.872,-0.351 -12.947,-0.351 -1.289,0 -1.984,0.351 -1.984,1.054 0,0.46 0.352,1.046 1.632,1.046 1.515,0 2.678,0.117 3.615,0.352 2.101,0.468 2.678,2.335 3.03,5.247 0.468,4.201 0.468,12.018 0.468,21.115 v 17.49 c 0,15.047 0,17.85 -0.117,20.997 -0.234,3.381 -1.163,4.436 -4.435,5.364 -0.812,0.235 -2.561,0.352 -4.075,0.352 -1.055,0 -1.749,0.352 -1.749,1.055 0,0.694 0.811,0.929 2.326,0.929 5.364,0 11.9,-0.235 14.353,-0.235 2.443,0 9.79,0.235 13.18,0.235 1.515,0 2.209,-0.235 2.209,-0.929 0,-0.703 -0.577,-1.055 -1.397,-1.055 -1.046,0 -1.632,-0.117 -2.912,-0.352 C 1.163,30.319 0.352,28.922 0.117,25.424 0,22.277 0,19.474 0,4.427 Z" /></g><g
           transform="translate(737.6411,942.9741)"
           id="g48"><path
             id="path50"
             style="fill:#000000;fill-opacity:1;fill-rule:nonzero;stroke:none"
             d="m 0,0 c 0,17.734 0,20.998 -0.234,24.73 -0.235,3.967 -1.163,5.833 -5.013,6.645 -0.938,0.234 -2.921,0.351 -4.553,0.351 -1.28,0 -1.983,0.234 -1.983,1.046 0,0.82 0.82,1.055 2.569,1.055 3.147,0 6.527,-0.118 9.448,-0.118 3.03,-0.117 5.717,-0.234 7.349,-0.234 3.732,0 26.938,0 29.156,0.117 2.218,0.235 4.084,0.469 5.012,0.703 0.586,0.118 1.29,0.46 1.867,0.46 0.586,0 0.703,-0.46 0.703,-1.046 0,-0.82 -0.586,-2.217 -0.929,-7.582 -0.117,-1.163 -0.351,-6.302 -0.586,-7.699 -0.117,-0.586 -0.351,-1.28 -1.172,-1.28 -0.811,0 -1.046,0.586 -1.046,1.632 0,0.82 -0.117,2.794 -0.703,4.201 -0.811,2.101 -1.983,3.498 -7.807,4.201 -1.984,0.226 -14.236,0.46 -16.571,0.46 -0.577,0 -0.811,-0.351 -0.811,-1.163 V -3.029 c 0,-0.821 0.117,-1.289 0.811,-1.289 2.57,0 15.985,0 18.662,0.234 2.804,0.234 4.553,0.586 5.599,1.749 0.82,0.938 1.289,1.515 1.866,1.515 0.469,0 0.821,-0.226 0.821,-0.929 0,-0.703 -0.469,-2.569 -0.938,-8.511 -0.108,-2.335 -0.46,-7.005 -0.46,-7.816 0,-0.938 0,-2.218 -1.055,-2.218 -0.811,0 -1.045,0.469 -1.045,1.046 -0.118,1.172 -0.118,2.686 -0.469,4.201 -0.586,2.335 -2.218,4.084 -6.528,4.553 -2.217,0.234 -13.766,0.351 -16.57,0.351 -0.577,0 -0.694,-0.468 -0.694,-1.171 v -9.214 c 0,-3.967 -0.117,-14.696 0,-18.077 0.234,-8.051 2.1,-9.8 13.992,-9.8 3.038,0 7.934,0 10.972,1.398 3.029,1.397 4.426,3.849 5.247,8.637 0.234,1.28 0.46,1.749 1.28,1.749 0.938,0 0.938,-0.938 0.938,-2.101 0,-2.687 -0.938,-10.62 -1.524,-12.946 -0.811,-3.039 -1.866,-3.039 -6.293,-3.039 -8.754,0 -15.164,0.235 -20.186,0.352 -5.013,0.234 -8.628,0.352 -12.126,0.352 -1.28,0 -3.85,0 -6.644,-0.118 -2.687,0 -5.716,-0.234 -8.051,-0.234 -1.515,0 -2.335,0.352 -2.335,1.172 0,0.577 0.469,0.929 1.866,0.929 1.749,0 3.147,0.234 4.201,0.468 2.335,0.469 2.912,3.03 3.381,6.411 C 0,-40.471 0,-31.257 0,-20.528 Z" /></g><g
           transform="translate(840.0585,930.2622)"
           id="g52"><path
             id="path54"
             style="fill:#000000;fill-opacity:1;fill-rule:nonzero;stroke:none"
             d="m 0,0 c 3.264,-4.896 20.294,-31.843 22.864,-34.99 1.749,-2.218 3.381,-3.272 5.598,-3.967 1.398,-0.468 3.03,-0.585 3.967,-0.585 0.695,0 1.28,-0.469 1.28,-1.046 0,-0.704 -0.82,-1.055 -1.983,-1.055 h -3.029 c -2.452,0 -10.621,0 -19.014,0.234 -2.687,0.117 -3.616,0.352 -3.616,1.046 0,0.586 0.46,1.055 1.398,1.289 0.469,0.117 1.163,0.812 0.351,2.101 -5.95,9.683 -11.548,19.005 -16.218,26.587 L -23.45,-33.709 c -1.046,-1.632 -1.632,-3.147 -1.514,-4.202 0.117,-0.928 1.055,-1.514 1.983,-1.514 0.586,0 1.398,-0.117 2.218,-0.117 0.586,0 1.28,-0.586 1.28,-1.164 0,-0.703 -0.694,-0.937 -2.1,-0.937 h -1.867 c -0.576,0 -7.347,0.351 -9.908,0.351 -1.983,0 -7.005,-0.351 -8.637,-0.351 h -1.749 c -1.046,0 -1.514,0.351 -1.514,0.937 0,0.578 0.586,1.164 1.397,1.164 0.703,0 2.218,0.117 3.733,0.468 3.038,0.812 4.67,2.444 8.168,7.231 L -11.9,-4.787 -29.977,23.44 c -2.569,3.967 -4.67,6.068 -8.285,7.231 -1.632,0.469 -3.264,0.704 -4.31,0.704 -0.586,0 -1.054,0.468 -1.054,1.162 0,0.587 0.82,0.821 2.1,0.821 2.452,0 10.729,-0.234 15.633,-0.234 1.397,0 7.7,0.234 11.549,0.234 1.398,0 2.092,-0.234 2.092,-0.929 0,-0.703 -0.694,-1.054 -1.632,-1.054 -0.577,0 -1.632,-0.118 -2.443,-0.353 -0.938,-0.234 -1.407,-0.811 -1.407,-1.397 0,-0.586 0.469,-1.866 1.055,-2.912 4.544,-7.934 8.745,-14.821 12.829,-21.583 3.03,4.435 12.126,17.851 13.884,20.645 0.812,1.398 1.163,2.805 1.163,3.616 0,0.703 -0.703,1.397 -1.749,1.631 -1.054,0.353 -2.452,0.353 -3.263,0.353 -0.586,0 -1.289,0.351 -1.289,1.054 0,0.695 0.703,0.929 2.217,0.929 3.967,0 8.745,-0.234 10.729,-0.234 1.983,0 6.184,0.234 10.034,0.234 1.163,0 1.867,-0.234 1.867,-0.929 0,-0.586 -0.587,-1.054 -1.632,-1.054 -1.055,0 -2.336,-0.235 -3.733,-0.587 -2.335,-0.577 -4.201,-3.264 -7.348,-7.582 z" /></g><g
           transform="translate(890.6811,934.9233)"
           id="g56"><path
             id="path58"
             style="fill:#000000;fill-opacity:1;fill-rule:nonzero;stroke:none"
             d="m 0,0 c 0,15.047 0,17.851 -0.117,20.997 -0.235,3.381 -1.163,4.436 -4.436,5.364 -0.811,0.235 -2.56,0.352 -4.075,0.352 -1.055,0 -1.749,0.352 -1.749,1.055 0,0.694 0.812,0.929 2.326,0.929 5.364,0 11.901,-0.235 14.813,-0.235 4.201,0 12.369,0.235 17.03,0.235 12.83,0 17.5,-4.202 19.131,-5.599 2.218,-2.101 5.13,-6.527 5.13,-11.901 0,-13.992 -11.197,-24.026 -25.775,-24.026 -0.469,0 -2.57,0 -3.029,0.117 -0.586,0 -1.29,0.352 -1.29,1.055 0,0.811 1.172,1.28 3.39,1.28 5.716,0 13.758,5.95 13.758,16.093 0,3.272 -0.352,9.8 -6.067,14.695 -3.733,3.273 -7.925,3.733 -10.26,3.733 -1.515,0 -3.498,-0.108 -4.436,-0.46 -0.577,-0.234 -0.811,-0.821 -0.811,-1.866 V -17.49 c 0,-9.097 0,-16.914 0.459,-21.232 0.352,-2.795 0.938,-4.661 3.967,-5.13 1.524,-0.234 3.732,-0.352 5.256,-0.352 1.163,0 1.632,-0.586 1.632,-1.046 0,-0.703 -0.82,-1.054 -1.866,-1.054 -6.888,0 -14.119,0.351 -16.796,0.351 -2.335,0 -8.872,-0.351 -12.947,-0.351 -1.289,0 -1.983,0.351 -1.983,1.054 0,0.46 0.343,1.046 1.632,1.046 1.514,0 2.677,0.118 3.615,0.352 2.101,0.469 2.678,2.335 3.029,5.247 C 0,-34.404 0,-26.587 0,-17.49 Z" /></g><g
           transform="translate(963.1215,934.9233)"
           id="g60"><path
             id="path62"
             style="fill:#000000;fill-opacity:1;fill-rule:nonzero;stroke:none"
             d="m 0,0 c 0,15.047 0,17.851 -0.117,20.997 -0.235,3.381 -1.163,4.436 -4.436,5.364 -0.811,0.235 -2.56,0.352 -4.075,0.352 -1.055,0 -1.749,0.352 -1.749,1.055 0,0.694 0.812,0.929 2.326,0.929 5.364,0 11.901,-0.235 14.813,-0.235 3.272,0 26.01,-0.117 27.993,0 1.866,0.118 3.498,0.469 4.318,0.586 0.587,0.118 1.163,0.469 1.632,0.469 0.587,0 0.704,-0.469 0.704,-0.937 0,-0.704 -0.587,-1.867 -0.821,-6.42 -0.117,-1.046 -0.352,-5.364 -0.576,-6.527 -0.117,-0.469 -0.352,-1.632 -1.173,-1.632 -0.693,0 -0.811,0.469 -0.811,1.28 0,0.703 -0.117,2.452 -0.704,3.615 -0.82,1.75 -1.631,3.156 -6.761,3.616 -1.749,0.234 -14.001,0.468 -16.102,0.468 -0.46,0 -0.694,-0.351 -0.694,-0.928 V -2.443 c 0,-0.586 0.117,-1.055 0.694,-1.055 2.335,0 15.633,0 17.968,0.234 2.444,0.235 3.967,0.469 4.895,1.515 0.822,0.703 1.163,1.289 1.632,1.289 0.469,0 0.821,-0.469 0.821,-1.055 0,-0.577 -0.234,-2.217 -0.821,-7.23 -0.234,-1.984 -0.469,-5.95 -0.469,-6.645 0,-0.82 -0.117,-2.217 -1.046,-2.217 -0.703,0 -0.937,0.351 -0.937,0.811 -0.108,1.055 -0.108,2.335 -0.342,3.615 -0.586,1.984 -1.867,3.507 -5.716,3.85 -1.866,0.234 -13.533,0.469 -16.102,0.469 -0.46,0 -0.577,-0.469 -0.577,-1.046 v -7.934 c 0,-3.381 -0.117,-11.783 0,-14.696 0.234,-6.77 3.381,-8.285 13.875,-8.285 2.687,0 6.996,0.117 9.682,1.289 2.571,1.163 3.733,3.264 4.437,7.348 0.224,1.046 0.459,1.515 1.162,1.515 0.821,0 0.938,-1.28 0.938,-2.335 0,-2.218 -0.82,-8.98 -1.407,-10.963 -0.693,-2.57 -1.632,-2.57 -5.481,-2.57 -7.699,0 -13.875,0.118 -18.897,0.352 -5.013,0.117 -8.862,0.234 -11.891,0.234 -1.172,0 -3.381,-0.117 -5.833,-0.117 -2.453,-0.117 -5.013,-0.234 -7.114,-0.234 -1.289,0 -1.983,0.351 -1.983,1.054 0,0.46 0.351,1.046 1.632,1.046 1.514,0 2.677,0.118 3.615,0.352 2.101,0.469 2.678,2.335 3.029,5.247 C 0,-34.404 0,-26.587 0,-17.49 Z" /></g><g
           transform="translate(1043.9556,927.2241)"
           id="g64"><path
             id="path66"
             style="fill:#000000;fill-opacity:1;fill-rule:nonzero;stroke:none"
             d="m 0,0 c 0,-1.046 0.234,-1.397 0.929,-1.749 2.217,-0.694 5.256,-0.929 7.816,-0.929 4.084,0 5.482,0.352 7.231,1.632 3.155,2.218 6.653,6.536 6.653,14.695 0,14.002 -9.566,17.617 -15.633,17.617 -2.56,0 -5.013,-0.117 -6.067,-0.351 C 0.234,30.68 0,30.328 0,29.517 Z m -13.063,7.699 c 0,15.047 0,17.851 -0.118,20.997 -0.234,3.381 -1.163,4.436 -4.435,5.365 -0.812,0.234 -2.561,0.352 -4.075,0.352 -1.055,0 -1.749,0.351 -1.749,1.054 0,0.695 0.811,0.929 2.326,0.929 5.364,0 11.9,-0.234 14.001,-0.234 3.498,0 12.829,0.234 15.975,0.234 6.536,0 14.001,-0.586 19.483,-4.202 2.912,-1.983 7.23,-6.996 7.23,-13.64 0,-7.357 -4.201,-13.884 -14.226,-21.935 9.096,-11.198 16.327,-20.177 22.512,-26.362 5.706,-5.707 9.322,-6.175 10.963,-6.527 1.046,-0.234 1.632,-0.234 2.444,-0.234 0.82,0 1.289,-0.586 1.289,-1.046 0,-0.821 -0.703,-1.055 -1.984,-1.055 h -9.801 c -5.715,0 -8.519,0.586 -11.197,1.983 -4.435,2.218 -8.285,6.879 -14.001,14.579 -4.075,5.364 -8.393,12.018 -9.674,13.532 -0.586,0.586 -1.171,0.703 -1.866,0.703 L 0.82,-7.573 C 0.352,-7.573 0,-7.808 0,-8.394 v -1.397 c 0,-9.214 0.117,-16.914 0.586,-21.115 0.343,-2.912 0.811,-4.778 3.967,-5.247 1.514,-0.234 3.732,-0.351 5.012,-0.351 0.812,0 1.281,-0.586 1.281,-1.046 0,-0.703 -0.812,-1.055 -2.101,-1.055 -5.941,0 -14.461,0.352 -15.975,0.352 -1.984,0 -8.52,-0.352 -12.595,-0.352 -1.289,0 -1.984,0.352 -1.984,1.055 0,0.46 0.343,1.046 1.632,1.046 1.515,0 2.678,0.117 3.615,0.351 2.101,0.469 2.678,2.335 3.03,5.247 0.469,4.201 0.469,12.018 0.469,21.115 z" /></g><g
           transform="translate(1123.0405,957.5522)"
           id="g68"><path
             id="path70"
             style="fill:#000000;fill-opacity:1;fill-rule:nonzero;stroke:none"
             d="m 0,0 -15.281,-0.352 c -5.95,-0.117 -8.404,-0.811 -9.917,-3.029 -1.046,-1.397 -1.515,-2.677 -1.749,-3.381 -0.236,-0.82 -0.47,-1.28 -1.163,-1.28 -0.703,0 -0.939,0.577 -0.939,1.632 0,1.632 1.985,11.198 2.219,12.009 0.234,1.289 0.586,1.866 1.162,1.866 0.821,0 1.866,-0.811 4.437,-1.163 3.029,-0.351 6.878,-0.469 10.268,-0.469 h 41.634 c 3.272,0 5.481,0.235 7.005,0.469 1.632,0.235 2.443,0.469 2.795,0.469 0.703,0 0.82,-0.586 0.82,-2.101 0,-2.1 -0.234,-9.448 -0.234,-12.018 -0.118,-1.046 -0.352,-1.631 -0.938,-1.631 -0.811,0 -1.046,0.468 -1.163,1.983 l -0.117,1.046 c -0.235,2.569 -2.921,5.598 -12.135,5.716 L 13.758,0 v -40.119 c 0,-9.097 0.117,-16.914 0.586,-21.232 0.351,-2.795 0.937,-4.661 3.967,-5.13 1.397,-0.234 3.732,-0.352 5.247,-0.352 1.163,0 1.631,-0.585 1.631,-1.045 0,-0.704 -0.811,-1.055 -1.983,-1.055 -6.762,0 -13.641,0.351 -16.561,0.351 -2.335,0 -9.332,-0.351 -13.416,-0.351 -1.28,0 -1.983,0.351 -1.983,1.055 0,0.46 0.352,1.045 1.641,1.045 1.514,0 2.795,0.118 3.615,0.352 2.092,0.469 2.678,2.335 3.029,5.247 C 0,-57.033 0,-49.216 0,-40.119 Z" /></g><g
           transform="translate(1180.5513,889.8994)"
           id="g72"><path
             id="path74"
             style="fill:#000000;fill-opacity:1;fill-rule:nonzero;stroke:none"
             d="m 0,0 c -1.632,0.703 -1.983,1.172 -1.983,3.39 0,5.364 0.468,11.54 0.586,13.181 0,1.514 0.46,2.56 1.28,2.56 0.937,0 1.054,-0.928 1.054,-1.632 0,-1.28 0.343,-3.381 0.929,-5.13 2.218,-7.348 9.917,-9.8 16.327,-9.8 8.871,0 14.236,5.599 14.236,12.595 0,4.318 -1.055,8.637 -10.152,14.002 l -5.95,3.498 C 4.201,39.777 0.234,46.43 0.234,55.175 c 0,12.126 11.666,19.943 25.893,19.943 6.644,0 11.9,-0.929 14.578,-1.632 0.938,-0.235 1.398,-0.586 1.398,-1.28 0,-1.289 -0.343,-4.084 -0.343,-11.901 0,-2.1 -0.469,-3.146 -1.289,-3.146 -0.695,0 -1.046,0.586 -1.046,1.749 0,0.928 -0.469,3.967 -2.687,6.527 -1.514,1.866 -4.778,4.67 -11.431,4.67 -7.348,0 -13.993,-3.85 -13.993,-10.611 0,-4.436 1.632,-7.934 10.846,-13.064 l 4.201,-2.335 C 39.894,36.63 44.086,29.048 44.086,20.069 44.086,12.721 41.291,6.771 33.826,1.523 28.922,-1.975 22.16,-2.561 16.679,-2.561 10.729,-2.561 4.436,-1.975 0,0" /></g><g
           transform="translate(1284.3657,889.8994)"
           id="g76"><path
             id="path78"
             style="fill:#000000;fill-opacity:1;fill-rule:nonzero;stroke:none"
             d="m 0,0 c -1.632,0.703 -1.983,1.172 -1.983,3.39 0,5.364 0.468,11.54 0.586,13.181 0,1.514 0.468,2.56 1.28,2.56 0.937,0 1.046,-0.928 1.046,-1.632 0,-1.28 0.351,-3.381 0.937,-5.13 2.218,-7.348 9.917,-9.8 16.327,-9.8 8.863,0 14.236,5.599 14.236,12.595 0,4.318 -1.055,8.637 -10.152,14.002 l -5.95,3.498 C 4.201,39.777 0.234,46.43 0.234,55.175 c 0,12.126 11.666,19.943 25.893,19.943 6.644,0 11.9,-0.929 14.578,-1.632 0.939,-0.235 1.398,-0.586 1.398,-1.28 0,-1.289 -0.342,-4.084 -0.342,-11.901 0,-2.1 -0.47,-3.146 -1.29,-3.146 -0.695,0 -1.046,0.586 -1.046,1.749 0,0.928 -0.469,3.967 -2.687,6.527 -1.514,1.866 -4.778,4.67 -11.431,4.67 -7.348,0 -13.993,-3.85 -13.993,-10.611 0,-4.436 1.632,-7.934 10.846,-13.064 l 4.201,-2.335 C 39.895,36.63 44.086,29.048 44.086,20.069 44.086,12.721 41.291,6.771 33.826,1.523 28.931,-1.975 22.16,-2.561 16.679,-2.561 10.729,-2.561 4.436,-1.975 0,0" /></g><g
           transform="translate(1353.5425,934.9233)"
           id="g80"><path
             id="path82"
             style="fill:#000000;fill-opacity:1;fill-rule:nonzero;stroke:none"
             d="m 0,0 c 0,15.047 0,17.851 -0.126,20.997 -0.234,3.381 -1.28,4.553 -3.498,5.247 -1.163,0.352 -2.452,0.469 -3.732,0.469 -1.046,0 -1.632,0.235 -1.632,1.163 0,0.586 0.811,0.821 2.443,0.821 3.858,0 10.855,-0.235 13.775,-0.235 2.561,0 9.214,0.235 13.181,0.235 1.28,0 2.092,-0.235 2.092,-0.821 0,-0.928 -0.577,-1.163 -1.641,-1.163 -1.046,0 -1.857,-0.117 -3.029,-0.352 C 15.038,25.893 14.227,24.495 13.992,20.997 13.758,17.851 13.758,15.047 13.758,0 v -17.49 c 0,-9.566 0,-17.5 0.469,-21.701 0.342,-2.678 1.045,-4.192 4.075,-4.661 1.406,-0.234 3.732,-0.352 5.247,-0.352 1.172,0 1.64,-0.586 1.64,-1.046 0,-0.703 -0.829,-1.054 -1.983,-1.054 -6.762,0 -13.775,0.351 -16.57,0.351 -2.326,0 -9.323,-0.351 -13.407,-0.351 -1.289,0 -1.983,0.351 -1.983,1.054 0,0.46 0.352,1.046 1.632,1.046 1.515,0 2.678,0.118 3.606,0.352 2.11,0.469 2.687,1.866 3.047,4.778 C 0,-34.99 0,-27.056 0,-17.49 Z" /></g><g
           transform="translate(1410.3403,902.1514)"
           id="g84"><path
             id="path86"
             style="fill:#000000;fill-opacity:1;fill-rule:nonzero;stroke:none"
             d="m 0,0 c 0.234,-7.699 1.515,-10.034 3.498,-10.729 1.749,-0.585 3.733,-0.703 5.374,-0.703 1.172,0 1.749,-0.468 1.749,-1.046 0,-0.82 -0.937,-1.054 -2.326,-1.054 -6.653,0 -11.432,0.351 -13.308,0.351 -0.937,0 -5.823,-0.351 -11.07,-0.351 -1.407,0 -2.345,0.117 -2.345,1.054 0,0.578 0.703,1.046 1.642,1.046 1.388,0 3.263,0.118 4.67,0.469 2.668,0.694 3.029,3.381 3.137,12.009 l 0.938,58.791 c 0,1.983 0.703,3.381 1.749,3.381 1.279,0 2.687,-1.515 4.436,-3.264 1.28,-1.289 16.678,-17.031 31.608,-31.609 6.996,-6.887 20.645,-20.88 22.16,-22.277 h 0.469 l -1.046,44.086 c -0.126,6.068 -1.064,7.817 -3.516,8.745 -1.514,0.586 -3.949,0.586 -5.355,0.586 -1.28,0 -1.641,0.469 -1.641,1.055 0,0.812 1.064,0.929 2.578,0.929 5.356,0 10.837,-0.235 13.055,-0.235 1.172,0 5.013,0.235 10.025,0.235 1.407,0 2.344,-0.117 2.344,-0.929 0,-0.586 -0.595,-1.055 -1.749,-1.055 -1.046,0 -1.875,0 -3.155,-0.352 -2.795,-0.811 -3.607,-2.56 -3.733,-8.158 l -1.171,-62.524 c 0,-2.218 -0.812,-3.146 -1.623,-3.146 -1.749,0 -3.156,1.046 -4.202,2.1 C 46.773,-6.645 33.953,5.599 23.225,15.976 12.027,26.713 1.173,38.722 -0.811,40.471 h -0.342 z" /></g><g
           transform="translate(1505.4009,898.0674)"
           id="g88"><path
             id="path90"
             style="fill:#000000;fill-opacity:1;fill-rule:nonzero;stroke:none"
             d="m 0,0 c -10.151,8.52 -12.838,19.717 -12.838,29.274 0,6.77 2.218,18.436 12.027,27.182 7.465,6.527 17.256,10.494 32.546,10.494 6.402,0 10.26,-0.469 14.93,-1.046 3.841,-0.586 7.231,-1.28 10.26,-1.632 1.172,-0.117 1.514,-0.585 1.514,-1.172 0,-0.811 -0.234,-1.983 -0.468,-5.481 -0.235,-3.264 -0.235,-8.745 -0.343,-10.729 -0.126,-1.397 -0.469,-2.452 -1.406,-2.452 -0.812,0 -1.046,0.82 -1.046,2.101 -0.126,3.155 -1.406,6.653 -3.967,9.213 -3.498,3.381 -10.386,5.833 -19.834,5.833 -8.979,0 -14.695,-1.631 -19.366,-5.598 C 4.437,49.459 2.561,39.894 2.561,30.211 2.561,6.654 20.772,-4.544 34.53,-4.544 c 9.088,0 14.118,0.694 18.194,5.247 1.749,1.984 3.155,4.778 3.498,6.645 0.234,1.514 0.468,1.983 1.28,1.983 0.703,0 1.172,-0.928 1.172,-1.749 0,-1.163 -1.172,-9.8 -2.218,-13.181 C 55.987,-7.348 55.519,-7.816 53.77,-8.511 49.694,-10.143 41.869,-10.729 35.233,-10.729 21.224,-10.729 9.341,-7.816 0,0" /></g><g
           transform="translate(1588.9224,934.9233)"
           id="g92"><path
             id="path94"
             style="fill:#000000;fill-opacity:1;fill-rule:nonzero;stroke:none"
             d="m 0,0 c 0,15.047 0,17.851 -0.108,20.997 -0.235,3.381 -1.172,4.436 -4.436,5.364 -0.811,0.235 -2.56,0.352 -4.075,0.352 -1.046,0 -1.749,0.352 -1.749,1.055 0,0.694 0.811,0.929 2.326,0.929 5.373,0 11.9,-0.235 14.821,-0.235 3.264,0 26.001,-0.117 27.985,0 1.875,0.118 3.498,0.469 4.327,0.586 0.577,0.118 1.154,0.469 1.623,0.469 0.577,0 0.703,-0.469 0.703,-0.937 0,-0.704 -0.577,-1.867 -0.812,-6.42 -0.126,-1.046 -0.36,-5.364 -0.594,-6.527 -0.109,-0.469 -0.343,-1.632 -1.155,-1.632 -0.703,0 -0.829,0.469 -0.829,1.28 0,0.703 -0.108,2.452 -0.703,3.615 -0.811,1.75 -1.623,3.156 -6.762,3.616 -1.749,0.234 -13.992,0.468 -16.083,0.468 -0.469,0 -0.704,-0.351 -0.704,-0.928 V -2.443 c 0,-0.586 0.109,-1.055 0.704,-1.055 2.326,0 15.615,0 17.959,0.234 2.452,0.235 3.966,0.469 4.886,1.515 0.829,0.703 1.172,1.289 1.641,1.289 0.469,0 0.811,-0.469 0.811,-1.055 0,-0.577 -0.234,-2.217 -0.811,-7.23 -0.235,-1.984 -0.469,-5.95 -0.469,-6.645 0,-0.82 -0.108,-2.217 -1.046,-2.217 -0.703,0 -0.937,0.351 -0.937,0.811 -0.109,1.055 -0.109,2.335 -0.343,3.615 -0.595,1.984 -1.875,3.507 -5.716,3.85 -1.875,0.234 -13.541,0.469 -16.101,0.469 -0.469,0 -0.578,-0.469 -0.578,-1.046 v -7.934 c 0,-3.381 -0.126,-11.783 0,-14.696 0.235,-6.77 3.372,-8.285 13.884,-8.285 2.669,0 6.996,0.117 9.665,1.289 2.578,1.163 3.75,3.264 4.436,7.348 0.234,1.046 0.469,1.515 1.172,1.515 0.811,0 0.937,-1.28 0.937,-2.335 0,-2.218 -0.829,-8.98 -1.406,-10.963 -0.703,-2.57 -1.623,-2.57 -5.482,-2.57 -7.699,0 -13.883,0.118 -18.896,0.352 -5.013,0.117 -8.854,0.234 -11.9,0.234 -1.155,0 -3.372,-0.117 -5.825,-0.117 -2.452,-0.117 -5.012,-0.234 -7.122,-0.234 -1.28,0 -1.983,0.351 -1.983,1.054 0,0.46 0.36,1.046 1.641,1.046 1.514,0 2.686,0.118 3.606,0.352 2.109,0.469 2.686,2.335 3.047,5.247 C 0,-34.404 0,-26.587 0,-17.49 Z" /></g><g
           transform="translate(1710.1099,942.6226)"
           id="g96"><path
             id="path98"
             style="fill:#000000;fill-opacity:1;fill-rule:nonzero;stroke:none"
             d="m 0,0 v 15.281 c 0,2.804 0,4.202 -1.749,4.202 -2.2,0 -10.963,-4.553 -13.523,-5.599 -0.578,-0.235 -1.172,-0.469 -1.624,-0.469 -0.36,0 -0.937,0.586 -0.937,1.28 0,0.703 0.577,1.29 1.154,1.641 0.469,0.226 22.864,14.93 26.956,17.959 1.046,0.704 2.092,1.515 3.03,1.515 1.046,0 1.406,-1.28 1.406,-2.452 0,-0.929 -0.703,-12.478 -0.703,-30.32 v -21.583 c 0,-11.198 0,-21.105 0.469,-26.245 0.342,-3.732 0.919,-5.481 4.652,-6.293 1.749,-0.351 6.78,-0.703 7.699,-0.703 0.469,0 1.065,-0.351 1.065,-1.163 0,-0.82 -0.596,-1.054 -1.876,-1.054 -8.872,0 -16.336,0.351 -19.474,0.351 -2.687,0 -12.478,-0.351 -19.942,-0.351 -1.298,0 -1.984,0.234 -1.984,1.054 0,0.812 0.451,1.163 0.92,1.163 1.28,0 7.231,0.352 9.34,0.821 3.732,0.811 4.309,2.443 4.67,6.175 0.451,5.14 0.685,15.047 0.577,26.245 z" /></g><g
           transform="translate(1817.1968,946.7065)"
           id="g100"><path
             id="path102"
             style="fill:#000000;fill-opacity:1;fill-rule:nonzero;stroke:none"
             d="m 0,0 c 0,-32.654 -28.579,-53.183 -43.04,-59.954 -0.595,-0.351 -1.172,-0.468 -2.109,-0.468 -0.452,0 -1.046,0.586 -1.046,1.172 0,0.811 0.811,1.514 1.406,1.983 12.135,7.348 30.328,26.479 30.328,54.003 0,20.646 -8.745,29.743 -17.742,29.743 -8.385,0 -13.992,-7.465 -13.992,-17.382 0,-17.842 11.557,-22.043 15.524,-22.043 4.075,0 6.401,0.703 7.916,1.397 1.298,0.703 1.875,1.289 2.344,1.289 0.469,0 0.937,-0.469 0.937,-1.054 0,-0.352 -0.36,-1.046 -0.594,-1.281 -3.372,-3.615 -9.449,-5.364 -15.399,-5.364 -16.787,0 -23.783,12.712 -23.783,22.512 0,15.741 11.9,27.173 29.859,27.173 C -10.386,31.726 0,17.734 0,0" /></g><g
           transform="translate(1890.0972,976.4492)"
           id="g104"><path
             id="path106"
             style="fill:#000000;fill-opacity:1;fill-rule:nonzero;stroke:none"
             d="m 0,0 c 2.218,0 2.795,-0.352 2.795,-0.929 0,-0.703 -0.469,-1.632 -0.812,-2.1 -9.682,-13.767 -27.876,-60.071 -29.625,-75.001 -0.234,-1.984 0,-2.804 0,-4.319 0,-2.326 -9.448,-7.113 -14.695,-7.113 -1.28,0 -1.642,0.352 -1.642,1.398 0,1.171 0.236,2.92 0.812,4.787 3.264,11.197 18.194,45.601 34.296,72.548 h -30.202 c -3.264,0 -8.168,-0.234 -10.963,-2.1 -2.11,-1.398 -3.625,-5.13 -3.86,-6.996 -0.107,-0.938 -0.468,-1.515 -1.153,-1.515 -0.83,0 -0.937,0.577 -0.937,1.749 0,4.309 1.749,17.959 1.749,19.122 0,1.172 0.468,1.641 1.172,1.641 0.684,0 3.371,-1.172 15.741,-1.172 z" /></g><g
           transform="translate(1903.6392,920.4624)"
           id="g108"><path
             id="path110"
             style="fill:#000000;fill-opacity:1;fill-rule:nonzero;stroke:none"
             d="m 0,0 c 0,22.746 17.959,47.125 43.274,57.267 1.046,0.469 1.984,0.703 2.561,0.703 0.703,0 1.406,-0.351 1.406,-1.046 0,-1.054 -1.623,-1.866 -2.921,-2.569 C 30.688,46.656 14.587,27.759 14.587,-0.117 c 0,-13.641 5.95,-28.228 17.725,-28.228 8.042,0 14.695,6.067 14.695,19.6 0,16.21 -8.745,23.323 -16.445,23.323 -2.92,0 -4.435,-0.351 -6.058,-0.811 -0.938,-0.235 -1.983,-0.704 -2.578,-0.704 -0.469,0 -0.92,0.352 -0.92,1.164 0,0.82 0.577,1.289 1.28,1.757 3.498,2.444 8.745,4.193 15.164,4.193 16.445,0 23.783,-13.298 23.783,-23.675 0,-18.077 -13.415,-29.977 -30.436,-29.977 C 12.838,-33.475 0,-21.115 0,0" /></g><g
           transform="translate(2.977,759.2905)"
           id="g112"><path
             id="path114"
             style="fill:#000000;fill-opacity:1;fill-rule:nonzero;stroke:none"
             d="m 0,0 c 0,27.103 22.184,49.273 49.273,49.273 h 1895.562 c 27.103,0 49.272,-22.17 49.272,-49.273 v -315.085 c 0,-27.119 -22.169,-49.273 -49.272,-49.273 H 49.273 C 22.184,-364.358 0,-342.204 0,-315.085 Z" /></g><g
           transform="translate(137.3374,704.3721)"
           id="g116"><path
             id="path118"
             style="fill:#ffffff;fill-opacity:1;fill-rule:evenodd;stroke:none"
             d="m 0,0 c 10.779,-2.609 18.335,-6.659 18.335,-17.423 0,-19.246 4.391,-66.039 4.391,-104.021 v -63.53 c 0,-13.217 -5.018,-18.308 -17.708,-20.531 -6.187,-4.391 0,-6.929 0,-6.929 12.034,0 23.397,1.241 35.444,1.241 12.033,0 15.327,-1.241 27.431,-1.241 5.418,2.167 0,6.929 0,6.929 -12.104,0 -19.676,7.314 -19.676,18.022 0,27.189 0.314,62.247 0.314,87.525 l 44.313,-0.856 c 12.302,0 21.798,-4.077 25.306,-19.005 4.405,-5.06 10.095,0 10.095,0 -0.272,7.9 -0.614,16.169 -0.614,24.082 0,9.167 0.342,11.319 0.614,20.487 -4.293,6.543 -10.095,0 -10.095,0 -1.881,-13.615 -13.303,-17.109 -25.306,-17.109 H 48.588 c 0.272,30.084 -0.413,65.512 -0.057,91.432 h 45.908 c 17.025,0 27.774,-10.45 32.593,-25.322 3.735,-4.376 11.405,-2.666 11.947,0 0.599,2.723 -0.655,8.826 -0.655,15.171 0,6.929 4.533,19.062 -0.928,18.021 L 0,6.943 C -7.157,6.472 0,0 0,0" /></g><g
           transform="translate(359.7787,491.938)"
           id="g120"><path
             id="path122"
             style="fill:#ffffff;fill-opacity:1;fill-rule:evenodd;stroke:none"
             d="m 0,0 c -4.876,2.167 0,6.929 0,6.929 10.764,2.609 15.769,7.614 15.769,18.392 v 81.195 c 0,27.16 -1.568,54.348 -1.568,81.225 0,14.884 -1.555,22.767 -17.636,25.932 -5.475,3.836 0,6.916 0,6.916 10.079,0 20.53,-1.212 30.667,-1.212 9.437,0 2.31,1.212 26.005,1.212 56.914,0 88.85,-28.343 88.85,-62.519 0,-31.949 -37.396,-52.523 -65.455,-59.481 l 63.803,-73.952 c 6.516,-10.18 41.93,-41.746 41.93,-41.746 8.313,-5.858 26.946,-12.703 48.076,-14.372 17.537,-1.453 42.672,2.91 51.412,4.877 8.283,2.267 8.711,-1.111 4.277,-3.807 -68.264,-40.077 -119.847,-7.014 -145.068,19.204 -2.11,3.309 -24.523,27.631 -28.287,32.038 L 60.28,82.165 c -3.408,4.406 -6.23,8.212 -9.41,12.019 -0.086,-0.128 -0.086,10.408 0,10.408 31.11,0 65.241,19.617 65.241,49.615 0,29.07 -21.642,55.047 -56.145,55.047 -8.225,0 -17.051,-0.969 -17.051,-8.853 l -1.568,-94.854 c 0.256,0 -0.257,-9.738 0,-9.738 V 33.22 C 41.347,19.932 42.915,10.351 59.026,6.929 63.958,4.234 59.026,0 59.026,0 47.619,0 44.882,1.241 33.504,1.241 22.127,1.241 11.407,0 0,0" /></g><g
           transform="translate(597.0488,493.1792)"
           id="g124"><path
             id="path126"
             style="fill:#ffffff;fill-opacity:1;fill-rule:evenodd;stroke:none"
             d="m 0,0 h 112.746 c 10.108,0 22.356,0.085 26.833,-1.241 11.591,-3.45 12.875,26.689 12.875,26.689 -3.252,10.95 -9.624,5.604 -9.624,5.604 C 128.601,11.135 120.958,9.409 97.548,9.409 h -53.65 v 100.157 h 47.663 c 18.334,-1.838 26.489,6.872 31.293,-14.884 1.697,-4.363 11.121,-4.363 10.737,0 -0.314,3.165 -1.283,10.18 -1.283,19.562 0,9.209 1.283,9.38 1.283,18.533 -5.475,5.446 -10.138,0 -10.138,0 -7.527,-15.44 -13.558,-13.944 -31.892,-13.944 H 43.898 v 89.736 h 55.247 c 17.379,0 24.979,-5.289 30.396,-20.445 8.326,-8.155 11.963,0 11.963,0 0,7.898 -1.441,9.439 -1.241,13.645 0.399,7.883 3.45,14.642 -0.2,17.564 -3.435,2.538 -15.055,-1.197 -23.539,-1.197 H 0 c -4.861,-2.168 0,-6.943 0,-6.943 9.852,-1.926 15.826,-7.315 15.826,-15.198 0,-28.16 2.508,-73.311 2.508,-116.34 V 26.219 C 18.334,15.782 12.29,8.297 0,6.971 -5.561,2.609 0,0 0,0" /></g><g
           transform="translate(1194.0288,531.8018)"
           id="g128"><path
             id="path130"
             style="fill:#ffffff;fill-opacity:1;fill-rule:evenodd;stroke:none"
             d="m 0,0 c -4.305,-0.685 -93.014,180.468 -93.014,180.468 -6.046,5.574 -8.056,-0.014 -8.056,-0.014 L -116.853,5.018 c -2.251,-24.308 -6.044,-34.788 -20.216,-37.953 -5.831,-5.26 0,-6.929 0,-6.929 9.467,0 16.838,1.241 26.347,1.241 9.495,0 18.962,-1.241 28.472,-1.241 5.146,0 0,6.929 0,6.929 -13.331,2.609 -21.827,11.093 -21.827,27.518 0,6.614 0.883,16.11 1.225,20.515 l 8.297,107.657 c 0,0 85.018,-163.388 89.195,-163.588 3.478,-0.143 69.989,163.588 69.989,163.588 L 70.716,10.408 c 0.657,-4.463 1.34,-11.434 1.34,-21.557 0,-10.437 -3.834,-20.502 -14.256,-21.786 -4.706,-4.32 0,-6.929 0,-6.929 11.063,0 13.459,1.241 24.622,1.241 11.049,0 32.435,-1.241 33.234,-1.241 5.417,-0.086 -0.385,6.929 -0.385,6.929 -13.045,0.641 -16.467,14.885 -17.75,30.683 L 83.349,180.454 c -5.546,6.401 -8.613,-0.428 -8.613,-0.428 C 74.736,180.026 4.222,0.799 0,0" /></g><g
           transform="translate(1638.6421,491.938)"
           id="g132"><path
             id="path134"
             style="fill:#ffffff;fill-opacity:1;fill-rule:evenodd;stroke:none"
             d="M 0,0 C 10.479,0 18.806,1.241 29.17,1.241 39.564,1.241 50.058,0 60.408,0 c 3.964,1.241 0,6.929 0,6.929 -15.113,3.764 -27.032,5.161 -27.374,29.77 V 179.842 L 195.082,-2.109 c 8.868,-8.113 10.75,0 10.75,0 v 179.155 c 0,25.636 7.928,38.239 21.785,40.776 5.133,4.706 0,6.944 0,6.944 -10.379,0 -21.157,-1.268 -31.622,-1.268 -10.465,0 -20.888,1.268 -31.323,1.268 -5.134,-2.153 0,-6.944 0,-6.944 15.212,-2.21 27.288,-3.078 27.288,-42.258 V 37.682 c 0,0 -155.775,178.473 -160.693,182.836 -8.341,10.065 -11.892,-1.484 -11.892,-1.484 L 19.29,37.297 C 19.29,19.59 12.332,10.094 0,6.929 -4.748,3.079 0,0 0,0" /></g><g
           transform="translate(1921.7485,721.979)"
           id="g136"><path
             id="path138"
             style="fill:#ffffff;fill-opacity:1;fill-rule:evenodd;stroke:none"
             d="m 0,0 v 14.443 h 11.635 c 5.075,0 10.321,-0.798 10.321,-7.114 C 21.956,-1.027 13.402,0 7.614,0 Z m 14.429,-3.992 c 7.27,0.186 12.903,3.237 12.903,11.163 0,6.859 -3.693,10.922 -14.528,10.922 H -5.104 V -22.883 H 0 v 18.891 h 9.096 l 11.777,-18.891 h 5.96 L 14.429,-3.992 M 8.555,-34.289 c -17.907,0 -30.924,13.888 -30.924,31.994 0,17.75 13.017,31.679 30.924,31.679 17.793,0 30.753,-13.929 30.753,-31.679 0,-18.106 -12.96,-31.994 -30.753,-31.994 m 0,-4.861 c 20.246,0 36.613,16.439 36.613,36.855 0,20.046 -16.367,36.484 -36.613,36.484 -20.33,0 -36.742,-16.438 -36.742,-36.484 0,-20.416 16.412,-36.855 36.742,-36.855" /></g><g
           transform="translate(830.0121,493.1792)"
           id="g140"><path
             id="path142"
             style="fill:#ffffff;fill-opacity:1;fill-rule:evenodd;stroke:none"
             d="m 0,0 h 112.775 c 10.123,0 22.413,0.085 26.805,-1.241 11.632,-3.45 12.973,26.689 12.973,26.689 -3.294,10.95 -9.709,5.604 -9.709,5.604 C 128.601,11.135 120.93,9.409 97.52,9.409 H 43.798 v 100.157 h 47.733 c 18.393,-1.838 26.605,6.872 31.367,-14.884 1.625,-4.363 11.121,-4.363 10.779,0 -0.343,3.165 -1.355,10.18 -1.355,19.562 0,9.209 1.355,9.38 1.355,18.533 -5.475,5.446 -10.18,0 -10.18,0 -7.528,-15.44 -13.573,-13.944 -31.966,-13.944 H 43.798 v 89.736 h 55.404 c 17.366,0 24.923,-5.289 30.383,-20.445 8.254,-8.155 11.934,0 11.934,0 0,7.898 -1.455,9.439 -1.227,13.645 0.342,7.883 3.45,14.642 -0.228,17.564 -3.365,2.538 -15.014,-1.197 -23.496,-1.197 H 0 c -4.96,-2.168 0,-6.943 0,-6.943 9.78,-1.926 15.797,-7.315 15.797,-15.198 0,-28.16 2.566,-73.311 2.566,-116.34 V 26.219 C 18.363,15.782 12.29,8.297 0,6.971 -5.646,2.609 0,0 0,0" /></g><g
           transform="translate(1492.9468,589.0303)"
           id="g144"><path
             id="path146"
             style="fill:#ffffff;fill-opacity:1;fill-rule:nonzero;stroke:none"
             d="m 0,0 c 1.469,0 1.469,0.898 1.197,2.053 l -27.886,79.241 c -1.483,4.392 -2.938,4.392 -4.391,0 L -56.914,2.053 C -57.513,0.599 -56.914,0 -56.017,0 Z m -30.51,117.379 c 3.536,9.696 4.691,11.45 6.472,11.45 1.74,0 2.923,-1.469 6.444,-10.579 4.392,-11.15 50.458,-132.337 68.378,-176.933 10.552,-26.134 19.077,-30.825 25.208,-32.549 4.434,-1.498 8.84,-1.782 11.748,-1.782 1.753,0 2.95,-0.285 2.95,-1.768 0,-1.754 -2.636,-2.352 -5.858,-2.352 -4.406,0 -25.807,0 -46.08,0.598 -5.589,0.3 -8.797,0.3 -8.797,2.053 0,1.184 0.869,1.753 2.038,2.053 1.74,0.598 3.522,3.209 1.74,7.912 L 6.474,-12.319 c -0.599,1.199 -1.155,1.755 -2.653,1.755 h -63.074 c -1.482,0 -2.338,-0.87 -2.937,-2.353 l -17.622,-51.925 c -2.594,-7.329 -4.092,-14.371 -4.092,-19.676 0,-5.858 6.174,-8.496 11.134,-8.496 h 2.967 c 2.053,0 2.936,-0.599 2.936,-1.768 0,-1.754 -1.795,-2.352 -4.391,-2.352 -7.071,0 -19.675,0.898 -22.896,0.898 -3.251,0 -19.39,-0.898 -33.163,-0.898 -3.806,0 -5.588,0.598 -5.588,2.352 0,1.169 1.182,1.768 2.65,1.768 2.055,0 6.16,0.284 8.526,0.584 13.488,1.782 19.348,12.917 24.637,27.588 z" /></g><g
           transform="translate(147.6352,86.0986)"
           id="g148"><path
             id="path150"
             style="fill:#000000;fill-opacity:1;fill-rule:nonzero;stroke:none"
             d="m 0,0 v 171.562 c 0,14.799 5.371,27.68 16.122,38.63 10.746,10.952 23.422,16.427 38.023,16.427 h 5.171 c 2.025,0 3.698,-0.713 5.019,-2.13 1.317,-1.421 1.978,-3.146 1.978,-5.171 0,-2.029 -0.661,-3.65 -1.978,-4.867 -1.321,-1.217 -2.994,-1.825 -5.019,-1.825 h -3.954 c -11.36,0 -20.889,-4.007 -28.593,-12.015 -7.71,-8.013 -11.664,-17.491 -11.864,-28.441 v -34.982 h 45.02 c 1.825,0 3.346,-0.661 4.562,-1.977 1.217,-1.321 1.826,-2.79 1.826,-4.411 0,-1.825 -0.609,-3.399 -1.826,-4.715 -1.216,-1.321 -2.737,-1.977 -4.562,-1.977 H 14.905 V 0 c 0,-1.825 -0.76,-3.346 -2.281,-4.562 C 11.103,-5.779 9.226,-6.388 6.997,-6.388 2.329,-6.388 0,-4.259 0,0" /></g><g
           transform="translate(234.9335,159.1035)"
           id="g152"><path
             id="path154"
             style="fill:#000000;fill-opacity:1;fill-rule:nonzero;stroke:none"
             d="m 0,0 h 64.792 c 6.892,0 11.454,0.708 13.688,2.129 2.229,1.417 3.346,4.358 3.346,8.821 0,10.747 -3.854,20.381 -11.559,28.899 C 62.558,48.365 52.824,52.624 41.065,52.624 29.706,52.624 20.024,48.67 12.016,40.761 4.002,32.852 0,23.422 0,12.472 Z m -14.905,-24.943 v 36.198 c 0,15.005 5.475,27.881 16.426,38.632 10.951,10.746 24.13,16.122 39.544,16.122 14.924,0 27.829,-5.277 38.722,-15.819 10.889,-10.546 16.336,-23.627 16.336,-39.24 0,-5.474 -0.661,-9.886 -1.973,-13.231 -1.311,-3.347 -3.383,-5.733 -6.216,-7.149 -2.833,-1.421 -5.409,-2.281 -7.733,-2.586 -2.325,-0.303 -5.609,-0.456 -9.853,-0.456 H 0 v -12.775 c 0,-12.776 4.563,-23.019 13.688,-30.724 9.126,-7.709 20.885,-11.558 35.286,-11.558 7.281,0 13.456,1.012 18.517,3.042 5.057,2.024 8.903,4.053 11.536,6.084 2.633,2.024 4.658,3.041 6.074,3.041 1.787,0 3.375,-0.813 4.767,-2.433 1.388,-1.626 2.087,-3.247 2.087,-4.867 0,-3.855 -4.187,-7.909 -12.562,-12.168 -8.375,-4.259 -18.717,-6.388 -31.027,-6.388 -18.66,0 -33.869,5.171 -45.628,15.514 -11.763,10.342 -17.643,23.926 -17.643,40.761" /></g><g
           transform="translate(365.122,159.1035)"
           id="g156"><path
             id="path158"
             style="fill:#000000;fill-opacity:1;fill-rule:nonzero;stroke:none"
             d="m 0,0 h 64.792 c 6.892,0 11.454,0.708 13.688,2.129 2.229,1.417 3.346,4.358 3.346,8.821 0,10.747 -3.854,20.381 -11.559,28.899 C 62.558,48.365 52.824,52.624 41.065,52.624 29.706,52.624 20.024,48.67 12.016,40.761 4.002,32.852 0,23.422 0,12.472 Z m -14.905,-24.943 v 36.198 c 0,15.005 5.475,27.881 16.426,38.632 10.951,10.746 24.13,16.122 39.544,16.122 14.924,0 27.829,-5.277 38.722,-15.819 10.889,-10.546 16.336,-23.627 16.336,-39.24 0,-5.474 -0.661,-9.886 -1.973,-13.231 -1.311,-3.347 -3.383,-5.733 -6.216,-7.149 -2.833,-1.421 -5.409,-2.281 -7.733,-2.586 -2.325,-0.303 -5.609,-0.456 -9.853,-0.456 H 0 v -12.775 c 0,-12.776 4.563,-23.019 13.688,-30.724 9.126,-7.709 20.885,-11.558 35.286,-11.558 7.281,0 13.456,1.012 18.517,3.042 5.057,2.024 8.903,4.053 11.536,6.084 2.633,2.024 4.658,3.041 6.074,3.041 1.787,0 3.375,-0.813 4.767,-2.433 1.388,-1.626 2.087,-3.247 2.087,-4.867 0,-3.855 -4.187,-7.909 -12.562,-12.168 -8.375,-4.259 -18.717,-6.388 -31.027,-6.388 -18.66,0 -33.869,5.171 -45.628,15.514 -11.763,10.342 -17.643,23.926 -17.643,40.761" /></g><g
           transform="translate(485.2724,86.4033)"
           id="g160"><path
             id="path162"
             style="fill:#000000;fill-opacity:1;fill-rule:nonzero;stroke:none"
             d="m 0,0 v 219.926 c 0,1.825 0.708,3.346 2.129,4.563 1.417,1.217 3.142,1.825 5.171,1.825 2.23,0 4.054,-0.608 5.476,-1.825 1.416,-1.217 2.129,-2.738 2.129,-4.563 V 0 c 0,-1.626 -0.76,-3.146 -2.281,-4.563 C 11.103,-5.984 9.325,-6.692 7.3,-6.692 5.271,-6.692 3.546,-6.036 2.129,-4.715 0.708,-3.398 0,-1.825 0,0" /></g><g
           transform="translate(537.2851,86.4033)"
           id="g164"><path
             id="path166"
             style="fill:#000000;fill-opacity:1;fill-rule:nonzero;stroke:none"
             d="m 0,0 v 130.8 c 0,4.054 2.434,6.084 7.301,6.084 5.066,0 7.604,-2.03 7.604,-6.084 V 0 c 0,-1.626 -0.76,-3.146 -2.281,-4.563 -1.521,-1.421 -3.299,-2.129 -5.323,-2.129 -2.03,0 -3.755,0.656 -5.172,1.977 C 0.708,-3.398 0,-1.825 0,0 m -4.258,193.462 c 0,2.838 1.112,5.323 3.345,7.452 2.23,2.13 4.967,3.194 8.214,3.194 3.041,0 5.675,-1.064 7.908,-3.194 2.229,-2.129 3.347,-4.614 3.347,-7.452 0,-3.042 -1.118,-5.68 -3.347,-7.909 -2.233,-2.234 -4.867,-3.346 -7.908,-3.346 -3.247,0 -5.984,1.112 -8.214,3.346 -2.233,2.229 -3.345,4.867 -3.345,7.909" /></g><g
           transform="translate(586.8676,86.4033)"
           id="g168"><path
             id="path170"
             style="fill:#000000;fill-opacity:1;fill-rule:nonzero;stroke:none"
             d="m 0,0 v 130.8 c 0,4.054 2.434,6.084 7.301,6.084 2.024,0 3.75,-0.562 5.171,-1.674 1.416,-1.116 2.129,-2.585 2.129,-4.41 v -15.209 c 3.446,6.487 8.717,11.963 15.817,16.426 7.097,4.458 15.41,6.692 24.944,6.692 14.801,0 27.576,-5.476 38.327,-16.427 10.747,-10.95 16.122,-24.03 16.122,-39.24 V 0 c 0,-4.463 -2.538,-6.692 -7.604,-6.692 -4.867,0 -7.301,2.229 -7.301,6.692 v 83.042 c 0,10.747 -4.059,20.381 -12.167,28.898 -8.114,8.517 -17.643,12.776 -28.594,12.776 -10.342,0 -19.468,-3.802 -27.376,-11.407 C 18.86,105.704 14.905,95.614 14.905,83.042 V 0 c 0,-1.626 -0.76,-3.146 -2.281,-4.563 -1.521,-1.421 -3.299,-2.129 -5.323,-2.129 -2.03,0 -3.755,0.656 -5.172,1.977 C 0.708,-3.398 0,-1.825 0,0" /></g><g
           transform="translate(737.7407,163.0576)"
           id="g172"><path
             id="path174"
             style="fill:#000000;fill-opacity:1;fill-rule:nonzero;stroke:none"
             d="m 0,0 c 0,-11.155 3.242,-20.333 9.734,-27.528 6.488,-7.201 15.309,-10.799 26.464,-10.799 10.951,0 19.668,3.546 26.16,10.646 6.488,7.096 9.734,16.222 9.734,27.377 v 12.472 c 0,10.95 -3.246,19.924 -9.734,26.92 C 55.866,46.084 47.044,49.583 35.894,49.583 24.739,49.583 15.97,46.084 9.582,39.088 3.194,32.092 0,23.118 0,12.168 Z m -7.909,-113.461 c 0,-8.717 4.055,-15.766 12.168,-21.141 8.108,-5.371 19.263,-8.061 33.46,-8.061 13.693,0 24.316,2.638 31.868,7.909 7.548,5.275 11.327,12.472 11.327,21.597 0,4.463 -1.06,8.265 -3.171,11.407 -2.115,3.146 -4.681,5.628 -7.7,7.452 -3.018,1.825 -6.891,3.347 -11.62,4.564 -4.734,1.216 -8.86,1.976 -12.381,2.281 -3.522,0.304 -7.919,0.66 -13.19,1.064 l -10.951,1.217 c -19.876,-5.879 -29.81,-15.308 -29.81,-28.289 m -14.297,-1.521 c 0,15.818 8.822,26.972 26.465,33.461 -11.764,3.849 -17.643,10.95 -17.643,21.292 0,9.326 4.967,16.526 14.905,21.598 -10.751,9.529 -16.122,22.305 -16.122,38.327 v 12.472 c 0,14.601 4.663,26.563 13.993,35.894 9.325,9.325 21.492,13.993 36.502,13.993 14.801,0 26.769,-4.564 35.894,-13.689 2.799,5.675 6.25,10.238 10.352,13.689 4.097,3.445 7.947,5.171 11.549,5.171 2.633,0 4.611,-0.713 5.932,-2.13 1.317,-1.421 1.977,-3.041 1.977,-4.867 0,-3.65 -1.825,-5.679 -5.475,-6.083 -7.101,-0.41 -12.952,-4.972 -17.562,-13.689 5.219,-7.101 7.828,-16.53 7.828,-28.289 V -0.304 c 0,-14.601 -4.739,-26.669 -14.211,-36.198 -9.477,-9.534 -21.674,-14.297 -36.588,-14.297 -9.126,0 -17.139,1.925 -24.031,5.779 -7.3,-3.65 -10.951,-8.113 -10.951,-13.383 0,-5.276 3.294,-9.078 9.887,-11.408 6.587,-2.334 14.548,-3.854 23.878,-4.562 9.325,-0.713 18.627,-1.878 27.895,-3.498 9.268,-1.626 17.177,-5.276 23.727,-10.951 6.549,-5.675 9.824,-13.584 9.824,-23.727 0,-13.384 -5.224,-23.773 -15.666,-31.179 -10.447,-7.4 -24.591,-11.102 -42.434,-11.102 -17.847,0 -32.296,3.65 -43.346,10.95 -11.056,7.301 -16.579,16.935 -16.579,28.898" /></g><g
           transform="translate(905.3471,128.2139)"
           id="g176"><path
             id="path178"
             style="fill:#000000;fill-opacity:1;fill-rule:nonzero;stroke:none"
             d="m 0,0 c 0,-5.038 3.546,-10.936 10.646,-17.689 7.097,-6.754 15.105,-10.129 24.031,-10.129 9.126,0 17.135,3.678 24.031,11.036 C 65.6,-9.425 69.05,-1.111 69.05,8.166 v 30.842 c 0,9.068 -3.45,17.233 -10.342,24.491 -6.896,7.258 -15.01,10.89 -24.335,10.89 -9.125,0 -17.139,-3.281 -24.031,-9.829 C 3.446,58.01 0,49.492 0,39.008 Z m -25.248,-39.392 v 212.954 c 0,2.633 1.165,4.758 3.499,6.378 2.329,1.622 5.323,2.434 8.973,2.434 3.651,0 6.693,-0.812 9.126,-2.434 C -1.217,178.315 0,176.186 0,173.553 V 74.084 c 3.65,6.573 8.921,12.12 15.818,16.64 6.891,4.52 14.905,6.782 24.031,6.782 14.8,0 27.576,-5.732 38.327,-17.187 C 88.922,68.86 94.298,55.12 94.298,39.103 V 8.075 c 0,-15.413 -5.376,-29.101 -16.122,-41.064 -10.751,-11.968 -23.223,-17.948 -37.415,-17.948 -9.126,0 -17.543,2.363 -25.247,7.083 -7.71,4.724 -13.285,10.371 -16.731,16.944 v -12.339 c 0,-2.472 -1.169,-4.629 -3.498,-6.479 -2.333,-1.853 -5.019,-2.775 -8.061,-2.775 -3.451,0 -6.388,0.908 -8.821,2.733 -2.434,1.821 -3.651,3.945 -3.651,6.378" /></g><g
           transform="translate(1044.356,161.8408)"
           id="g180"><path
             id="path182"
             style="fill:#000000;fill-opacity:1;fill-rule:nonzero;stroke:none"
             d="m 0,0 h 56.274 c 5.272,0 8.822,0.656 10.647,1.978 1.825,1.316 2.738,3.902 2.738,7.756 0,9.125 -3.346,17.134 -10.038,24.031 -6.692,6.891 -14.905,10.342 -24.64,10.342 -9.534,0 -17.747,-3.194 -24.638,-9.582 C 3.446,28.138 0,20.276 0,10.951 Z M -25.247,-25.552 V 6.389 c 0,15.613 5.932,29.096 17.795,40.456 11.863,11.354 26.107,17.034 42.738,17.034 15.818,0 29.506,-5.294 41.065,-15.884 11.559,-10.59 17.338,-23.849 17.338,-39.782 0,-5.95 -0.712,-10.722 -2.128,-14.316 -1.422,-3.592 -3.603,-6.155 -6.54,-7.694 -2.943,-1.54 -5.68,-2.519 -8.213,-2.929 -2.538,-0.408 -5.932,-0.612 -10.191,-0.612 H 0 v -9.126 c 0,-11.155 4.002,-20.076 12.016,-26.768 8.008,-6.692 18.403,-10.039 31.178,-10.039 6.693,0 12.52,1.013 17.492,3.042 4.966,2.025 8.973,4.002 12.015,5.932 3.041,1.925 5.475,2.89 7.3,2.89 2.838,0 5.271,-1.269 7.301,-3.802 2.024,-2.538 3.042,-5.124 3.042,-7.757 0,-4.668 -4.615,-9.43 -13.841,-14.297 -9.231,-4.867 -20.637,-7.3 -34.221,-7.3 -19.877,0 -36.098,5.422 -48.67,16.274 -12.576,10.846 -18.859,25.095 -18.859,42.737" /></g><g
           transform="translate(1178.1968,120.1582)"
           id="g184"><path
             id="path186"
             style="fill:#000000;fill-opacity:1;fill-rule:nonzero;stroke:none"
             d="m 0,0 c 0,-7.6 2.13,-13.351 6.389,-17.253 4.258,-3.907 9.933,-5.855 17.034,-5.855 8.517,0 16.777,3.44 24.791,10.323 8.009,6.882 12.015,13.916 12.015,21.107 V 24.345 H 49.583 c -5.885,0 -10.951,-0.158 -15.21,-0.461 -4.258,-0.31 -8.669,-0.928 -13.231,-1.85 C 16.578,21.107 12.824,19.772 9.887,18.027 6.944,16.278 4.563,13.916 2.738,10.941 0.913,7.961 0,4.315 0,0 m -25.551,-2.771 c 0,15.946 6.083,27.04 18.251,33.275 12.167,6.236 29.81,9.353 52.928,9.353 h 14.601 v 6.431 c 0,10.21 -2.79,19.088 -8.365,26.646 -5.58,7.556 -13.945,11.335 -25.095,11.335 -8.517,0 -16.022,-1.521 -22.51,-4.563 -6.492,-3.042 -10.038,-4.562 -10.647,-4.562 -2.841,0 -5.123,1.369 -6.843,4.106 -1.726,2.737 -2.586,5.627 -2.586,8.669 0,4.663 4.61,8.769 13.84,12.319 9.226,3.546 19.012,5.324 29.354,5.324 19.872,0 34.525,-5.627 43.955,-16.882 9.43,-11.255 14.145,-25.3 14.145,-42.13 v -77.871 c 0,-2.639 -1.169,-4.821 -3.498,-6.54 -2.334,-1.726 -5.324,-2.586 -8.974,-2.586 -3.246,0 -5.984,0.837 -8.213,2.514 -2.233,1.678 -3.346,3.802 -3.346,6.369 V -19.72 C 47.653,-35.162 32.344,-42.881 15.514,-42.881 c -12.167,0 -22.053,3.417 -29.659,10.252 -7.604,6.835 -11.406,16.787 -11.406,29.858" /></g><g
           transform="translate(1287.0952,135.6816)"
           id="g188"><path
             id="path190"
             style="fill:#000000;fill-opacity:1;fill-rule:nonzero;stroke:none"
             d="m 0,0 v 79.088 c 0,2.433 1.264,4.562 3.802,6.388 2.533,1.825 5.523,2.738 8.973,2.738 3.242,0 6.132,-0.965 8.67,-2.886 2.534,-1.92 3.802,-3.992 3.802,-6.217 V 0.218 c 0,-9.107 3.446,-17.3 10.343,-24.582 6.891,-7.282 15.104,-10.922 24.639,-10.922 9.325,0 17.438,3.589 24.334,10.77 6.892,7.182 10.343,15.428 10.343,24.734 v 79.198 c 0,2.225 1.264,4.244 3.802,6.064 2.533,1.821 5.523,2.734 8.974,2.734 3.65,0 6.639,-0.865 8.973,-2.586 2.329,-1.726 3.498,-3.803 3.498,-6.236 V 0 c 0,-15.618 -5.931,-29.255 -17.795,-40.913 -11.863,-11.664 -25.908,-17.491 -42.129,-17.491 -16.426,0 -30.571,5.827 -42.434,17.491 C 5.932,-29.255 0,-15.618 0,0" /></g><g
           transform="translate(1432.7964,125.6426)"
           id="g192"><path
             id="path194"
             style="fill:#000000;fill-opacity:1;fill-rule:nonzero;stroke:none"
             d="m 0,0 v 156.656 c 0,2.434 1.316,4.511 3.954,6.236 2.633,1.72 5.476,2.586 8.518,2.586 3.241,0 6.183,-0.866 8.821,-2.586 2.633,-1.725 3.954,-3.802 3.954,-6.236 V 98.253 h 38.327 c 2.23,0 4.055,-1.018 5.476,-3.042 1.416,-2.029 2.13,-4.363 2.13,-6.996 0,-2.639 -0.714,-4.92 -2.13,-6.845 -1.421,-1.93 -3.246,-2.89 -5.476,-2.89 H 25.247 V 0.699 c 0,-8.64 1.873,-14.72 5.628,-18.237 3.75,-3.517 10.29,-5.275 19.619,-5.275 h 9.431 c 3.445,0 6.131,-1.113 8.06,-3.328 1.925,-2.214 2.89,-4.91 2.89,-8.075 0,-3.165 -1.017,-5.912 -3.042,-8.232 -2.029,-2.323 -4.667,-3.484 -7.908,-3.484 H 50.494 C 16.83,-45.932 0,-30.622 0,0" /></g><g
           transform="translate(1526.7896,88.8369)"
           id="g196"><path
             id="path198"
             style="fill:#000000;fill-opacity:1;fill-rule:nonzero;stroke:none"
             d="m 0,0 v 126.236 c 0,2.634 1.217,4.763 3.65,6.389 2.433,1.62 5.371,2.434 8.822,2.434 3.649,0 6.691,-0.814 9.125,-2.434 2.433,-1.626 3.65,-3.755 3.65,-6.389 V 0 c 0,-2.234 -1.268,-4.312 -3.803,-6.236 -2.537,-1.93 -5.527,-2.89 -8.972,-2.89 -3.451,0 -6.389,0.912 -8.822,2.737 C 1.217,-4.563 0,-2.434 0,0 m 1.368,179.013 c -3.146,2.937 -4.715,6.336 -4.715,10.19 0,3.85 1.522,7.196 4.564,10.038 3.042,2.838 6.792,4.259 11.255,4.259 4.257,0 7.908,-1.421 10.95,-4.259 3.042,-2.842 4.562,-6.188 4.562,-10.038 0,-3.854 -1.52,-7.253 -4.562,-10.19 -3.042,-2.942 -6.693,-4.41 -10.95,-4.41 -4.259,0 -7.962,1.468 -11.104,4.41" /></g><g
           transform="translate(1585.7974,88.5654)"
           id="g200"><path
             id="path202"
             style="fill:#000000;fill-opacity:1;fill-rule:nonzero;stroke:none"
             d="m 0,0 v 166.133 c 0,15.875 5.323,29.364 15.97,40.462 10.646,11.093 23.27,16.644 37.871,16.644 h 10.646 c 3.242,0 5.781,-1.164 7.605,-3.483 1.825,-2.324 2.738,-5.071 2.738,-8.237 0,-3.165 -0.913,-5.861 -2.738,-8.076 -1.824,-2.214 -4.363,-3.322 -7.605,-3.322 H 58.1 c -9.33,0 -17.087,-3.146 -23.271,-9.43 -6.187,-6.288 -9.382,-13.992 -9.581,-23.118 V 135.33 h 41.673 c 2.433,0 4.358,-1.018 5.779,-3.042 1.417,-2.029 2.13,-4.363 2.13,-6.996 0,-2.639 -0.713,-4.92 -2.13,-6.845 -1.421,-1.929 -3.346,-2.889 -5.779,-2.889 H 25.248 V -0.033 c 0,-2.434 -1.269,-4.516 -3.803,-6.236 -2.538,-1.725 -5.628,-2.585 -9.277,-2.585 -3.451,0 -6.341,0.812 -8.67,2.443 C 1.165,-4.786 0,-2.647 0,0" /></g><g
           transform="translate(1671.5737,135.6816)"
           id="g204"><path
             id="path206"
             style="fill:#000000;fill-opacity:1;fill-rule:nonzero;stroke:none"
             d="m 0,0 v 79.088 c 0,2.433 1.264,4.562 3.802,6.388 2.533,1.825 5.523,2.738 8.973,2.738 3.242,0 6.132,-0.965 8.67,-2.886 2.534,-1.92 3.802,-3.992 3.802,-6.217 V 0.218 c 0,-9.107 3.446,-17.3 10.343,-24.582 6.891,-7.282 15.104,-10.922 24.639,-10.922 9.325,0 17.438,3.589 24.334,10.77 6.892,7.182 10.343,15.428 10.343,24.734 v 79.198 c 0,2.225 1.264,4.244 3.802,6.064 2.533,1.821 5.523,2.734 8.974,2.734 3.65,0 6.639,-0.865 8.973,-2.586 2.329,-1.726 3.498,-3.803 3.498,-6.236 V 0 c 0,-15.618 -5.931,-29.255 -17.795,-40.913 -11.863,-11.664 -25.908,-17.491 -42.129,-17.491 -16.426,0 -30.571,5.827 -42.434,17.491 C 5.932,-29.255 0,-15.618 0,0" /></g><g
           transform="translate(1822.1421,88.8369)"
           id="g208"><path
             id="path210"
             style="fill:#000000;fill-opacity:1;fill-rule:nonzero;stroke:none"
             d="m 0,0 v 213.234 c 0,2.633 1.164,4.762 3.498,6.388 2.329,1.62 5.323,2.434 8.974,2.434 3.65,0 6.692,-0.814 9.126,-2.434 2.433,-1.626 3.649,-3.755 3.649,-6.388 V 0 c 0,-2.234 -1.268,-4.312 -3.802,-6.236 -2.538,-1.93 -5.527,-2.89 -8.973,-2.89 -3.451,0 -6.388,0.912 -8.822,2.737 C 1.217,-4.563 0,-2.434 0,0" /></g><g
           transform="translate(1891.8218,80.7363)"
           id="g212"><path
             id="path214"
             style="fill:#000000;fill-opacity:1;fill-rule:nonzero;stroke:none"
             d="m 0,0 v 31.262 c 0,1.968 1.056,2.955 3.173,2.955 1.892,0 3.376,-1.238 4.447,-3.713 l 8.646,-19.682 8.768,19.682 c 1.07,2.475 2.552,3.713 4.445,3.713 2.116,0 3.174,-0.987 3.174,-2.955 L 32.653,0 c 0,-1.396 -1.058,-2.093 -3.174,-2.093 -2.027,0 -3.04,0.69 -3.04,2.072 V 21.667 L 18.325,3.605 C 17.84,2.567 17.152,2.05 16.266,2.05 c -0.969,0 -1.615,0.517 -1.939,1.555 L 6.214,21.91 V -0.021 C 6.214,-1.403 5.199,-2.093 3.173,-2.093 1.056,-2.093 0,-1.396 0,0 m -30.948,31.357 c 0,1.906 0.641,2.86 1.924,2.86 h 23.687 c 1.201,0 1.803,-0.954 1.803,-2.86 0,-1.993 -0.59,-2.989 -1.767,-2.989 h -8.834 V -0.021 c 0,-1.382 -0.993,-2.072 -2.977,-2.072 -2.159,0 -3.237,0.69 -3.237,2.072 v 28.389 h -8.714 c -1.257,0 -1.885,0.996 -1.885,2.989" /></g></g></g></g></svg>