<svg id="Flat" height="512" viewBox="0 0 512 512" width="512" xmlns="http://www.w3.org/2000/svg"><rect fill="#a3d4f7" height="256" rx="32" width="384" x="104" y="112"/><rect fill="#e9eef2" height="48" rx="16" width="64" x="136" y="152"/><circle cx="432" cy="312" fill="#ffb632" r="24"/><path d="m240 312h-104a8 8 0 0 1 0-16h104a8 8 0 0 1 0 16z" fill="#1261a0"/><path d="m280 344h-144a8 8 0 0 1 0-16h144a8 8 0 0 1 0 16z" fill="#1261a0"/><circle cx="400" cy="312" fill="#d13330" r="24"/><g fill="#1261a0"><path d="m176 256h-32a8 8 0 0 1 0-16h32a8 8 0 0 1 0 16z"/><path d="m256 256h-32a8 8 0 0 1 0-16h32a8 8 0 0 1 0 16z"/><path d="m320 256h-32a8 8 0 0 1 0-16h32a8 8 0 0 1 0 16z"/><path d="m384 256h-32a8 8 0 0 1 0-16h32a8 8 0 0 1 0 16z"/><path d="m447.994 216a8 8 0 0 1 -7.149-11.58c.066-.131 7.155-14.58 7.155-28.42s-7.089-28.289-7.161-28.434a8 8 0 0 1 14.316-7.144c.362.723 8.845 17.892 8.845 35.578s-8.483 34.855-8.845 35.578a8 8 0 0 1 -7.161 4.422z"/><path d="m384 200a8 8 0 0 1 -5.657-13.657c2.268-2.3 5.657-7.209 5.657-10.343s-3.389-8.038-5.679-10.365a8 8 0 0 1 11.336-11.292c1.058 1.057 10.343 10.657 10.343 21.657s-9.285 20.6-10.343 21.657a7.976 7.976 0 0 1 -5.657 2.343z"/></g><path d="m176 256a8 8 0 0 1 -8-8v-40a56.063 56.063 0 0 0 -56-56h-1a54.16 54.16 0 0 0 -39.037 16.34 56.3 56.3 0 0 0 -15.963 39.66v40a8 8 0 0 1 -16 0v-40a72.211 72.211 0 0 1 20.527-50.85 70.04 70.04 0 0 1 50.473-21.15h1a72.081 72.081 0 0 1 72 72v40a8 8 0 0 1 -8 8z" fill="#757c80"/><path d="m24 248h176a0 0 0 0 1 0 0v120a32 32 0 0 1 -32 32h-112a32 32 0 0 1 -32-32v-120a0 0 0 0 1 0 0z" fill="#dadcde"/><path d="m112 368a8 8 0 0 1 -8-8v-32a8 8 0 0 1 16 0v32a8 8 0 0 1 -8 8z" fill="#757c80"/><circle cx="112" cy="304" fill="#757c80" r="24"/><path d="m432 176c0-18.771-9.285-28.6-10.343-29.657a8 8 0 0 0 -11.314 11.314c.057.057 5.657 6.2 5.657 18.343s-5.512 18.184-5.747 18.435l.09-.092a8 8 0 0 0 11.314 11.314c1.058-1.057 10.343-10.886 10.343-29.657z" fill="#1261a0"/></svg>