<?xml version="1.0" encoding="iso-8859-1"?>
<!-- Generator: Adobe Illustrator 19.0.0, SVG Export Plug-In . SVG Version: 6.00 Build 0)  -->
<svg version="1.1" id="Capa_1" xmlns="http://www.w3.org/2000/svg" xmlns:xlink="http://www.w3.org/1999/xlink" x="0px" y="0px"
	 viewBox="0 0 512 512" style="enable-background:new 0 0 512 512;" xml:space="preserve">
<g>
	<polyline style="fill:#FDB62F;" points="459.932,394.847 512,394.847 512,299.39 433.898,177.898 338.441,177.898 338.441,394.847 
		373.153,394.847 	"/>
	<polyline style="fill:#FDB62F;" points="78.102,394.847 8.678,394.847 8.678,117.153 338.441,117.153 338.441,394.847 
		164.881,394.847 	"/>
</g>
<g>
	<rect x="8.678" y="351.458" style="fill:#F46B27;" width="52.068" height="17.356"/>
	<rect x="182.237" y="351.458" style="fill:#F46B27;" width="156.203" height="17.356"/>
</g>
<rect x="477.288" y="351.458" style="fill:#DBDBDB;" width="34.712" height="17.356"/>
<rect x="34.712" y="143.186" style="fill:#F46B27;" width="303.729" height="17.356"/>
<g>
	<circle style="fill:#126099;" cx="121.492" cy="394.847" r="43.39"/>
	<circle style="fill:#126099;" cx="416.542" cy="394.847" r="43.39"/>
</g>
<g>
	<rect x="112.814" y="386.169" style="fill:#DBDBDB;" width="17.356" height="17.356"/>
	<rect x="407.864" y="386.169" style="fill:#DBDBDB;" width="17.356" height="17.356"/>
	<rect x="34.712" y="73.763" style="fill:#DBDBDB;" width="121.492" height="17.356"/>
	<rect y="73.763" style="fill:#DBDBDB;" width="17.356" height="17.356"/>
</g>
<polygon style="fill:#87CED9;" points="456.201,212.61 373.153,212.61 373.153,290.712 506.446,290.712 "/>
<rect x="338.441" y="177.898" style="fill:#FFA83D;" width="17.356" height="216.949"/>
<path style="fill:#6CBBC7;" d="M506.446,290.712l-47.121-73.329c-23.161,27.483-52.762,48.796-86.172,62.047v11.281H506.446z"/>
<g>
</g>
<g>
</g>
<g>
</g>
<g>
</g>
<g>
</g>
<g>
</g>
<g>
</g>
<g>
</g>
<g>
</g>
<g>
</g>
<g>
</g>
<g>
</g>
<g>
</g>
<g>
</g>
<g>
</g>
</svg>
