<?xml version="1.0"?>
<svg xmlns="http://www.w3.org/2000/svg" id="Flat" height="512px" viewBox="0 0 512 512" width="512px"><g><path d="m88 392-24-368h176l-24 368z" fill="#b1bd70" data-original="#B1BD70"/><path d="m88 392h128a0 0 0 0 1 0 0v64a32 32 0 0 1 -32 32h-64a32 32 0 0 1 -32-32v-64a0 0 0 0 1 0 0z" fill="#fbe9d8" data-original="#FBE9D8"/><path d="m120 488h64a32 32 0 0 0 32-32h-128a32 32 0 0 0 32 32z" fill="#b1bd70" data-original="#B1BD70"/><path d="m240 24h-176l2.087 32h171.826z" fill="#fbe9d8" data-original="#FBE9D8"/><path d="m144 424h16a16 16 0 0 1 16 16v16a0 0 0 0 1 0 0h-48a0 0 0 0 1 0 0v-16a16 16 0 0 1 16-16z" fill="#a0ab65" data-original="#A0AB65"/><rect fill="#e09f2c" height="176" rx="32" width="272" x="176" y="312" data-original="#E09F2C"/><path d="m200 280h224v32h-224z" fill="#f7b030" data-original="#F7B030" class="active-path" style="fill:#F7B030"/><path d="m176 344h272v112h-272z" fill="#f7b030" data-original="#F7B030" class="active-path" style="fill:#F7B030"/><g fill="#fbe9d8"><path d="m200.2 280s-7.718-46.667 72.81-46.667 94.99-33.333 94.99-33.333 56 20 56 80z" data-original="#FBE9D8"/><ellipse cx="312" cy="400" rx="56" ry="24" data-original="#FBE9D8"/><path d="m104 88h96v48h-96z" data-original="#FBE9D8"/><path d="m184 176h-64a8 8 0 0 1 0-16h64a8 8 0 0 1 0 16z" data-original="#FBE9D8"/></g></g> </svg>
