<?xml version="1.0" encoding="UTF-8" standalone="no"?>
<svg
   xmlns:dc="http://purl.org/dc/elements/1.1/"
   xmlns:cc="http://creativecommons.org/ns#"
   xmlns:rdf="http://www.w3.org/1999/02/22-rdf-syntax-ns#"
   xmlns:svg="http://www.w3.org/2000/svg"
   xmlns="http://www.w3.org/2000/svg"
   viewBox="0 0 264.56668 264.56668"
   height="264.56668"
   width="264.56668"
   xml:space="preserve"
   id="svg2"
   version="1.1"><metadata
     id="metadata8"><rdf:RDF><cc:Work
         rdf:about=""><dc:format>image/svg+xml</dc:format><dc:type
           rdf:resource="http://purl.org/dc/dcmitype/StillImage" /></cc:Work></rdf:RDF></metadata><defs
     id="defs6"><clipPath
       id="clipPath18"
       clipPathUnits="userSpaceOnUse"><path
         id="path16"
         d="M 0,198.425 H 198.425 V 0 H 0 Z" /></clipPath></defs><g
     transform="matrix(1.3333333,0,0,-1.3333333,0,264.56667)"
     id="g10"><g
       id="g12"><g
         clip-path="url(#clipPath18)"
         id="g14"><g
           transform="translate(16.5039,56.8359)"
           id="g20"><path
             id="path22"
             style="fill:#000000;fill-opacity:1;fill-rule:nonzero;stroke:none"
             d="m 0,0 c 1.974,4.563 6.535,16.44 7.283,18.891 0.171,0.51 0.307,0.987 0.307,1.294 0,0.271 -0.103,0.612 -0.443,0.782 -0.408,0.137 -0.918,0.137 -1.293,0.137 -0.204,0 -0.375,0.034 -0.375,0.204 0,0.203 0.205,0.271 0.75,0.271 1.361,0 2.926,-0.101 3.335,-0.101 0.204,0 1.668,0.101 2.655,0.101 0.374,0 0.579,-0.068 0.579,-0.238 0,-0.17 -0.136,-0.237 -0.409,-0.237 -0.238,0 -0.987,0 -1.634,-0.409 C 10.313,20.388 9.803,19.81 8.884,17.495 8.509,16.543 6.808,12.458 5.071,8.271 2.995,3.302 1.464,-0.374 0.681,-2.041 c -0.953,-2.044 -1.09,-2.587 -1.431,-2.587 -0.407,0 -0.578,0.476 -1.224,2.109 l -8.339,20.866 c -0.749,1.906 -1.259,2.279 -2.451,2.62 -0.51,0.137 -1.089,0.137 -1.293,0.137 -0.205,0 -0.273,0.102 -0.273,0.237 0,0.205 0.34,0.238 0.885,0.238 1.633,0 3.574,-0.101 3.983,-0.101 0.34,0 1.872,0.101 3.165,0.101 0.612,0 0.919,-0.068 0.919,-0.238 0,-0.17 -0.102,-0.237 -0.34,-0.237 -0.375,0 -0.987,-0.035 -1.294,-0.171 -0.374,-0.17 -0.443,-0.442 -0.443,-0.68 0,-0.443 0.41,-1.498 0.92,-2.825 z" /></g><g
           transform="translate(37.1514,61.5391)"
           id="g24"><path
             id="path26"
             style="fill:#000000;fill-opacity:1;fill-rule:nonzero;stroke:none"
             d="m 0,0 c 0,-2.929 0,-5.338 0.153,-6.618 0.092,-0.885 0.274,-1.556 1.188,-1.678 0.428,-0.061 1.098,-0.121 1.373,-0.121 0.183,0 0.244,-0.092 0.244,-0.184 0,-0.152 -0.153,-0.244 -0.488,-0.244 -1.677,0 -3.598,0.092 -3.751,0.092 -0.153,0 -2.073,-0.092 -2.989,-0.092 -0.335,0 -0.488,0.062 -0.488,0.244 0,0.092 0.062,0.184 0.244,0.184 0.275,0 0.641,0.06 0.915,0.121 0.61,0.122 0.762,0.793 0.884,1.678 0.153,1.28 0.153,3.689 0.153,6.618 v 5.366 c 0,4.757 0,5.612 -0.061,6.588 -0.06,1.035 -0.366,1.555 -1.037,1.707 -0.335,0.091 -0.731,0.122 -0.945,0.122 -0.122,0 -0.244,0.062 -0.244,0.183 0,0.183 0.153,0.244 0.488,0.244 1.007,0 2.927,-0.092 3.08,-0.092 0.153,0 2.074,0.092 2.989,0.092 0.334,0 0.488,-0.061 0.488,-0.244 0,-0.121 -0.123,-0.183 -0.244,-0.183 -0.214,0 -0.397,-0.031 -0.763,-0.092 C 0.365,13.539 0.122,13.021 0.061,11.954 0,10.978 0,10.123 0,5.366 Z" /></g><g
           transform="translate(47.3032,55.5605)"
           id="g28"><path
             id="path30"
             style="fill:#000000;fill-opacity:1;fill-rule:nonzero;stroke:none"
             d="m 0,0 c -2.958,2.652 -3.69,6.13 -3.69,9.027 0,2.043 0.702,5.612 3.416,8.326 1.83,1.83 4.605,3.263 9.301,3.263 1.219,0 2.927,-0.092 4.422,-0.367 1.158,-0.213 2.134,-0.396 3.11,-0.457 0.336,-0.03 0.397,-0.152 0.397,-0.336 0,-0.244 -0.092,-0.609 -0.153,-1.708 -0.062,-1.006 -0.062,-2.683 -0.092,-3.141 -0.03,-0.456 -0.091,-0.64 -0.274,-0.64 -0.214,0 -0.244,0.214 -0.244,0.64 0,1.191 -0.488,2.44 -1.28,3.112 -1.068,0.914 -3.416,1.737 -6.1,1.737 -4.056,0 -5.947,-1.189 -7.014,-2.226 -2.226,-2.135 -2.744,-4.848 -2.744,-7.958 0,-5.826 4.482,-11.163 11.008,-11.163 2.287,0 4.086,0.276 5.306,1.526 0.641,0.671 1.038,2.011 1.128,2.561 0.062,0.336 0.123,0.456 0.306,0.456 0.153,0 0.214,-0.212 0.214,-0.456 0,-0.214 -0.367,-2.867 -0.672,-3.902 -0.183,-0.581 -0.244,-0.641 -0.792,-0.885 -1.22,-0.488 -3.537,-0.703 -5.49,-0.703 C 5.489,-3.294 2.409,-2.165 0,0" /></g><g
           transform="translate(78.7388,61.5391)"
           id="g32"><path
             id="path34"
             style="fill:#000000;fill-opacity:1;fill-rule:nonzero;stroke:none"
             d="m 0,0 c 0,-2.929 0,-5.338 0.152,-6.618 0.091,-0.885 0.274,-1.556 1.189,-1.678 0.427,-0.061 1.098,-0.121 1.372,-0.121 0.184,0 0.245,-0.092 0.245,-0.184 0,-0.152 -0.153,-0.244 -0.488,-0.244 -1.678,0 -3.599,0.092 -3.751,0.092 -0.153,0 -2.074,-0.092 -2.989,-0.092 -0.335,0 -0.488,0.062 -0.488,0.244 0,0.092 0.061,0.184 0.245,0.184 0.274,0 0.64,0.06 0.914,0.121 0.61,0.122 0.762,0.793 0.885,1.678 0.152,1.28 0.152,3.689 0.152,6.618 v 12.899 l -4.513,-0.061 c -1.891,-0.03 -2.623,-0.245 -3.111,-0.976 -0.335,-0.518 -0.427,-0.732 -0.518,-0.945 -0.092,-0.245 -0.183,-0.306 -0.305,-0.306 -0.091,0 -0.153,0.093 -0.153,0.275 0,0.304 0.61,2.927 0.672,3.172 0.06,0.182 0.182,0.58 0.304,0.58 0.214,0 0.518,-0.307 1.341,-0.367 0.885,-0.091 2.044,-0.153 2.41,-0.153 H 5.001 c 0.976,0 1.677,0.062 2.165,0.153 0.458,0.06 0.732,0.152 0.855,0.152 0.151,0 0.151,-0.183 0.151,-0.365 0,-0.915 -0.091,-3.02 -0.091,-3.354 0,-0.276 -0.092,-0.398 -0.214,-0.398 -0.152,0 -0.214,0.092 -0.243,0.519 L 7.593,11.16 C 7.501,12.075 6.769,12.776 3.842,12.838 L 0,12.899 Z" /></g><g
           transform="translate(102.9478,53.4268)"
           id="g36"><path
             id="path38"
             style="fill:#000000;fill-opacity:1;fill-rule:nonzero;stroke:none"
             d="m 0,0 c 2.744,0 8.416,1.585 8.416,10.459 0,7.319 -4.452,11.253 -9.27,11.253 -5.093,0 -8.905,-3.355 -8.905,-10.032 C -9.759,4.574 -5.49,0 0,0 m -0.64,22.75 c 6.862,0 11.985,-4.332 11.985,-11.437 0,-6.831 -4.82,-12.473 -12.168,-12.473 -8.357,0 -11.833,6.496 -11.833,11.985 0,4.94 3.597,11.925 12.016,11.925" /></g><g
           transform="translate(122.7319,64.252)"
           id="g40"><path
             id="path42"
             style="fill:#000000;fill-opacity:1;fill-rule:nonzero;stroke:none"
             d="m 0,0 c 0,-0.151 0.062,-0.274 0.214,-0.366 0.457,-0.274 1.859,-0.488 3.203,-0.488 0.731,0 1.584,0.092 2.286,0.58 1.067,0.732 1.86,2.378 1.86,4.696 0,3.811 -2.013,6.099 -5.275,6.099 C 1.373,10.521 0.55,10.43 0.244,10.338 0.092,10.276 0,10.155 0,9.973 Z m -2.438,2.653 c 0,4.757 0,5.612 -0.062,6.588 -0.062,1.035 -0.306,1.524 -1.312,1.738 -0.245,0.06 -0.761,0.091 -1.036,0.091 -0.123,0 -0.244,0.062 -0.244,0.183 0,0.184 0.152,0.244 0.488,0.244 1.372,0 3.292,-0.092 3.446,-0.092 0.336,0 2.653,0.092 3.598,0.092 1.92,0 3.964,-0.184 5.58,-1.342 0.763,-0.549 2.104,-2.043 2.104,-4.147 0,-2.257 -0.944,-4.513 -3.689,-7.044 2.501,-3.203 4.575,-5.917 6.342,-7.807 1.648,-1.739 2.958,-2.075 3.722,-2.195 0.579,-0.092 1.006,-0.092 1.189,-0.092 0.152,0 0.275,-0.092 0.275,-0.183 0,-0.183 -0.184,-0.245 -0.732,-0.245 h -2.166 c -1.708,0 -2.469,0.153 -3.263,0.579 -1.311,0.703 -2.379,2.196 -4.118,4.484 -1.28,1.677 -2.713,3.72 -3.324,4.515 -0.121,0.121 -0.212,0.181 -0.395,0.181 L 0.214,-1.737 C 0.062,-1.737 0,-1.83 0,-1.98 v -0.733 c 0,-2.929 0,-5.338 0.152,-6.618 0.092,-0.885 0.275,-1.556 1.19,-1.678 0.428,-0.061 1.098,-0.121 1.373,-0.121 0.181,0 0.244,-0.092 0.244,-0.183 0,-0.153 -0.154,-0.245 -0.489,-0.245 -1.677,0 -3.598,0.092 -3.749,0.092 -0.033,0 -1.953,-0.092 -2.867,-0.092 -0.335,0 -0.489,0.062 -0.489,0.245 0,0.091 0.062,0.183 0.244,0.183 0.275,0 0.641,0.06 0.915,0.121 0.61,0.122 0.762,0.793 0.884,1.678 0.154,1.28 0.154,3.689 0.154,6.618 z" /></g><g
           transform="translate(147.2153,61.5391)"
           id="g44"><path
             id="path46"
             style="fill:#000000;fill-opacity:1;fill-rule:nonzero;stroke:none"
             d="m 0,0 c 0,-2.929 0,-5.338 0.152,-6.618 0.092,-0.885 0.275,-1.556 1.189,-1.678 0.428,-0.061 1.098,-0.121 1.374,-0.121 0.181,0 0.244,-0.092 0.244,-0.184 0,-0.152 -0.154,-0.244 -0.489,-0.244 -1.678,0 -3.599,0.092 -3.752,0.092 -0.152,0 -2.072,-0.092 -2.989,-0.092 -0.334,0 -0.487,0.062 -0.487,0.244 0,0.092 0.062,0.184 0.243,0.184 0.276,0 0.642,0.06 0.916,0.121 0.611,0.122 0.762,0.793 0.885,1.678 0.151,1.28 0.151,3.689 0.151,6.618 v 5.366 c 0,4.757 0,5.612 -0.06,6.588 -0.061,1.035 -0.365,1.555 -1.036,1.707 -0.336,0.091 -0.733,0.122 -0.946,0.122 -0.122,0 -0.245,0.062 -0.245,0.183 0,0.183 0.154,0.244 0.49,0.244 1.006,0 2.926,-0.092 3.078,-0.092 0.153,0 2.074,0.092 2.989,0.092 0.336,0 0.488,-0.061 0.488,-0.244 0,-0.121 -0.122,-0.183 -0.243,-0.183 -0.214,0 -0.397,-0.031 -0.764,-0.092 C 0.364,13.539 0.121,13.021 0.062,11.954 0,10.978 0,10.123 0,5.366 Z" /></g><g
           transform="translate(167.6128,62.7881)"
           id="g48"><path
             id="path50"
             style="fill:#000000;fill-opacity:1;fill-rule:nonzero;stroke:none"
             d="m 0,0 c 0.153,0 0.153,0.092 0.121,0.214 l -2.896,8.233 c -0.153,0.458 -0.305,0.458 -0.457,0 L -5.916,0.214 C -5.978,0.062 -5.916,0 -5.824,0 Z m -3.171,12.199 c 0.365,1.006 0.487,1.19 0.671,1.19 0.182,0 0.304,-0.155 0.671,-1.099 0.456,-1.159 5.245,-13.754 7.105,-18.389 1.098,-2.714 1.983,-3.202 2.622,-3.384 0.458,-0.154 0.916,-0.183 1.219,-0.183 0.184,0 0.306,-0.031 0.306,-0.184 0,-0.182 -0.275,-0.244 -0.609,-0.244 -0.458,0 -2.685,0 -4.79,0.062 -0.578,0.03 -0.914,0.03 -0.914,0.214 0,0.121 0.092,0.181 0.214,0.212 0.183,0.061 0.366,0.336 0.183,0.823 L 0.671,-1.28 C 0.609,-1.158 0.549,-1.098 0.397,-1.098 H -6.16 c -0.153,0 -0.244,-0.092 -0.305,-0.243 l -1.83,-5.398 c -0.274,-0.764 -0.428,-1.494 -0.428,-2.044 0,-0.61 0.641,-0.883 1.16,-0.883 h 0.305 c 0.215,0 0.305,-0.063 0.305,-0.184 0,-0.182 -0.183,-0.244 -0.457,-0.244 -0.732,0 -2.044,0.092 -2.379,0.092 -0.336,0 -2.012,-0.092 -3.445,-0.092 -0.397,0 -0.58,0.062 -0.58,0.244 0,0.121 0.122,0.184 0.274,0.184 0.214,0 0.642,0.029 0.885,0.06 1.403,0.183 2.011,1.342 2.561,2.867 z" /></g><g
           transform="translate(185.2319,53.0908)"
           id="g52"><path
             id="path54"
             style="fill:#000000;fill-opacity:1;fill-rule:nonzero;stroke:none"
             d="m 0,0 c -0.427,0.214 -0.456,0.336 -0.456,1.158 0,1.526 0.121,2.745 0.151,3.233 0.032,0.336 0.092,0.488 0.245,0.488 0.183,0 0.213,-0.091 0.213,-0.335 0,-0.274 0,-0.702 0.09,-1.128 0.458,-2.258 2.472,-3.111 4.515,-3.111 2.928,0 4.36,2.104 4.36,4.055 0,2.106 -0.885,3.325 -3.507,5.491 l -1.372,1.127 c -3.231,2.653 -3.963,4.544 -3.963,6.618 0,3.263 2.439,5.49 6.311,5.49 1.189,0 2.074,-0.123 2.837,-0.307 0.579,-0.121 0.822,-0.151 1.066,-0.151 0.244,0 0.306,-0.062 0.306,-0.214 0,-0.152 -0.121,-1.158 -0.121,-3.232 0,-0.489 -0.062,-0.703 -0.214,-0.703 -0.183,0 -0.215,0.154 -0.245,0.397 -0.029,0.366 -0.213,1.19 -0.396,1.526 -0.182,0.334 -1.006,1.616 -3.812,1.616 -2.105,0 -3.75,-1.312 -3.75,-3.539 0,-1.737 0.793,-2.834 3.721,-5.123 l 0.852,-0.67 C 10.43,9.851 11.284,7.96 11.284,5.52 11.284,4.27 10.796,1.951 8.692,0.458 7.381,-0.457 5.734,-0.824 4.087,-0.824 2.654,-0.824 1.251,-0.609 0,0" /></g><g
           transform="translate(43.3535,19.7295)"
           id="g56"><path
             id="path58"
             style="fill:#000000;fill-opacity:1;fill-rule:nonzero;stroke:none"
             d="m 0,0 c -0.477,0.238 -0.51,0.374 -0.51,1.293 0,1.702 0.136,3.062 0.17,3.607 0.034,0.374 0.102,0.546 0.272,0.546 0.205,0 0.238,-0.102 0.238,-0.375 0,-0.306 0,-0.783 0.102,-1.258 C 0.783,1.293 3.03,0.34 5.31,0.34 c 3.268,0 4.867,2.348 4.867,4.527 0,2.349 -0.987,3.71 -3.915,6.126 l -1.53,1.259 c -3.608,2.963 -4.425,5.072 -4.425,7.387 0,3.642 2.723,6.127 7.045,6.127 1.328,0 2.315,-0.137 3.165,-0.341 0.648,-0.136 0.92,-0.17 1.192,-0.17 0.272,0 0.341,-0.067 0.341,-0.239 0,-0.169 -0.136,-1.292 -0.136,-3.607 0,-0.546 -0.069,-0.783 -0.239,-0.783 -0.204,0 -0.238,0.17 -0.273,0.442 -0.033,0.409 -0.237,1.328 -0.442,1.703 -0.204,0.373 -1.123,1.802 -4.254,1.802 -2.349,0 -4.186,-1.463 -4.186,-3.947 0,-1.941 0.885,-3.166 4.152,-5.718 L 7.625,14.159 C 11.641,10.993 12.594,8.884 12.594,6.16 12.594,4.765 12.05,2.177 9.7,0.51 8.237,-0.511 6.399,-0.92 4.562,-0.92 2.961,-0.92 1.396,-0.682 0,0" /></g><g
           transform="translate(65.1504,33.5078)"
           id="g60"><path
             id="path62"
             style="fill:#000000;fill-opacity:1;fill-rule:nonzero;stroke:none"
             d="m 0,0 c 0,4.757 0,5.611 -0.061,6.586 -0.06,1.039 -0.304,1.526 -1.312,1.739 -0.243,0.062 -0.761,0.091 -1.036,0.091 -0.122,0 -0.244,0.062 -0.244,0.185 0,0.181 0.153,0.244 0.488,0.244 0.701,0 1.524,0 2.196,-0.032 l 1.25,-0.061 c 0.214,0 6.282,0 6.984,0.03 0.579,0.031 1.067,0.092 1.311,0.154 0.152,0.03 0.274,0.153 0.426,0.153 0.092,0 0.123,-0.123 0.123,-0.276 0,-0.212 -0.153,-0.58 -0.244,-1.432 C 9.85,7.075 9.79,5.733 9.728,5.366 9.698,5.215 9.637,5.03 9.515,5.03 9.332,5.03 9.271,5.185 9.271,5.429 9.271,5.643 9.24,6.161 9.088,6.526 8.875,7.014 8.569,7.381 6.922,7.563 6.404,7.625 3.08,7.654 2.745,7.654 2.623,7.654 2.563,7.563 2.563,7.35 v -8.417 c 0,-0.214 0.03,-0.305 0.182,-0.305 0.396,0 4.148,0 4.849,0.06 0.732,0.062 1.158,0.123 1.432,0.428 0.214,0.243 0.336,0.397 0.458,0.397 0.092,0 0.153,-0.062 0.153,-0.245 0,-0.183 -0.153,-0.701 -0.244,-1.707 -0.061,-0.611 -0.122,-1.739 -0.122,-1.953 0,-0.244 0,-0.58 -0.213,-0.58 -0.153,0 -0.214,0.123 -0.214,0.277 0,0.303 0,0.609 -0.122,1.006 C 8.6,-3.264 8.326,-2.745 7.136,-2.622 6.313,-2.531 3.294,-2.47 2.775,-2.47 2.623,-2.47 2.563,-2.562 2.563,-2.684 v -2.683 c 0,-1.036 -0.032,-4.574 0,-5.216 0.09,-2.104 0.548,-2.499 3.536,-2.499 0.794,0 2.135,0 2.927,0.335 0.793,0.336 1.16,0.945 1.373,2.196 0.061,0.336 0.122,0.456 0.274,0.456 0.184,0 0.184,-0.243 0.184,-0.456 0,-0.243 -0.244,-2.317 -0.397,-2.959 -0.213,-0.793 -0.458,-0.793 -1.647,-0.793 -2.286,0 -3.964,0.061 -5.154,0.092 -1.189,0.061 -1.92,0.093 -2.378,0.093 -0.061,0 -0.58,0 -1.22,-0.032 -0.61,0 -1.311,-0.061 -1.769,-0.061 -0.335,0 -0.488,0.061 -0.488,0.244 0,0.093 0.062,0.184 0.244,0.184 0.275,0 0.641,0.06 0.915,0.121 0.61,0.123 0.763,0.794 0.885,1.678 C 0,-10.703 0,-8.295 0,-5.367 Z" /></g><g
           transform="translate(84.7236,22.1641)"
           id="g64"><path
             id="path66"
             style="fill:#000000;fill-opacity:1;fill-rule:nonzero;stroke:none"
             d="m 0,0 c -2.958,2.652 -3.69,6.129 -3.69,9.025 0,2.043 0.702,5.612 3.416,8.326 1.83,1.831 4.605,3.264 9.3,3.264 1.22,0 2.928,-0.092 4.422,-0.367 1.159,-0.214 2.135,-0.395 3.111,-0.457 0.337,-0.031 0.397,-0.152 0.397,-0.335 0,-0.244 -0.092,-0.61 -0.152,-1.708 -0.061,-1.006 -0.061,-2.683 -0.092,-3.142 -0.031,-0.458 -0.091,-0.639 -0.275,-0.639 -0.214,0 -0.243,0.213 -0.243,0.639 0,1.19 -0.488,2.441 -1.282,3.112 -1.067,0.915 -3.415,1.738 -6.099,1.738 -4.056,0 -5.946,-1.19 -7.014,-2.226 -2.226,-2.135 -2.745,-4.849 -2.745,-7.96 0,-5.825 4.484,-11.161 11.01,-11.161 2.287,0 4.085,0.275 5.306,1.525 0.641,0.671 1.037,2.012 1.129,2.561 0.06,0.335 0.122,0.457 0.305,0.457 0.152,0 0.213,-0.213 0.213,-0.457 0,-0.215 -0.366,-2.866 -0.671,-3.903 C 16.164,-2.287 16.101,-2.349 15.553,-2.593 14.333,-3.08 12.016,-3.294 10.064,-3.294 5.489,-3.294 2.409,-2.166 0,0" /></g><g
           transform="translate(110.4253,30.8545)"
           id="g68"><path
             id="path70"
             style="fill:#000000;fill-opacity:1;fill-rule:nonzero;stroke:none"
             d="m 0,0 c 0,-0.151 0.063,-0.274 0.214,-0.365 0.458,-0.275 1.861,-0.489 3.202,-0.489 0.731,0 1.586,0.091 2.287,0.58 1.068,0.731 1.86,2.378 1.86,4.697 0,3.81 -2.012,6.098 -5.276,6.098 -0.915,0 -1.738,-0.091 -2.043,-0.183 C 0.092,10.278 0,10.155 0,9.972 Z m -2.439,2.653 c 0,4.757 0,5.612 -0.061,6.586 -0.061,1.039 -0.304,1.527 -1.311,1.74 -0.245,0.061 -0.762,0.09 -1.037,0.09 -0.122,0 -0.244,0.062 -0.244,0.185 0,0.182 0.153,0.244 0.488,0.244 1.373,0 3.293,-0.093 3.447,-0.093 0.335,0 2.653,0.093 3.596,0.093 1.922,0 3.965,-0.185 5.582,-1.343 0.761,-0.549 2.104,-2.043 2.104,-4.147 0,-2.257 -0.944,-4.514 -3.689,-7.044 2.501,-3.202 4.574,-5.917 6.341,-7.808 1.648,-1.737 2.959,-2.074 3.722,-2.195 0.579,-0.091 1.006,-0.091 1.189,-0.091 0.153,0 0.274,-0.091 0.274,-0.183 0,-0.184 -0.184,-0.245 -0.732,-0.245 h -2.165 c -1.708,0 -2.469,0.153 -3.262,0.58 -1.312,0.701 -2.379,2.197 -4.117,4.483 -1.282,1.678 -2.714,3.721 -3.325,4.513 -0.122,0.122 -0.214,0.184 -0.395,0.184 l -3.752,0.06 C 0.063,-1.738 0,-1.83 0,-1.982 v -0.732 c 0,-2.928 0,-5.336 0.153,-6.617 0.091,-0.884 0.275,-1.555 1.19,-1.678 0.427,-0.06 1.096,-0.121 1.373,-0.121 0.181,0 0.244,-0.091 0.244,-0.183 0,-0.152 -0.153,-0.245 -0.489,-0.245 -1.678,0 -3.599,0.093 -3.752,0.093 -0.03,0 -1.95,-0.093 -2.865,-0.093 -0.334,0 -0.489,0.061 -0.489,0.245 0,0.092 0.062,0.183 0.244,0.183 0.276,0 0.64,0.061 0.916,0.121 0.609,0.123 0.762,0.794 0.883,1.678 0.153,1.281 0.153,3.689 0.153,6.617 z" /></g><g
           transform="translate(132.3472,33.5078)"
           id="g72"><path
             id="path74"
             style="fill:#000000;fill-opacity:1;fill-rule:nonzero;stroke:none"
             d="m 0,0 c 0,4.757 0,5.611 -0.061,6.586 -0.061,1.039 -0.305,1.526 -1.312,1.739 -0.243,0.062 -0.762,0.091 -1.036,0.091 -0.121,0 -0.244,0.062 -0.244,0.185 0,0.181 0.152,0.244 0.488,0.244 0.702,0 1.524,0 2.196,-0.032 L 1.28,8.752 c 0.214,0 6.283,0 6.984,0.03 0.58,0.031 1.067,0.092 1.311,0.154 0.153,0.03 0.276,0.153 0.427,0.153 0.092,0 0.122,-0.123 0.122,-0.276 C 10.124,8.601 9.972,8.233 9.88,7.381 9.851,7.075 9.789,5.733 9.728,5.366 9.697,5.215 9.637,5.03 9.516,5.03 9.331,5.03 9.271,5.185 9.271,5.429 9.271,5.643 9.239,6.161 9.087,6.526 8.874,7.014 8.569,7.381 6.922,7.563 6.404,7.625 3.081,7.654 2.745,7.654 2.623,7.654 2.561,7.563 2.561,7.35 v -8.417 c 0,-0.214 0.032,-0.305 0.184,-0.305 0.396,0 4.148,0 4.848,0.06 0.732,0.062 1.159,0.123 1.434,0.428 0.212,0.243 0.335,0.397 0.456,0.397 0.092,0 0.154,-0.062 0.154,-0.245 0,-0.183 -0.154,-0.701 -0.244,-1.707 -0.062,-0.611 -0.122,-1.739 -0.122,-1.953 0,-0.244 0,-0.58 -0.213,-0.58 -0.154,0 -0.214,0.123 -0.214,0.277 0,0.303 0,0.609 -0.122,1.006 -0.123,0.425 -0.397,0.944 -1.586,1.067 -0.823,0.091 -3.843,0.152 -4.361,0.152 -0.152,0 -0.214,-0.092 -0.214,-0.214 v -2.683 c 0,-1.036 -0.03,-4.574 0,-5.216 0.091,-2.104 0.549,-2.499 3.539,-2.499 0.793,0 2.133,0 2.927,0.335 0.791,0.336 1.159,0.945 1.372,2.196 0.06,0.336 0.122,0.456 0.275,0.456 0.182,0 0.182,-0.243 0.182,-0.456 0,-0.243 -0.244,-2.317 -0.397,-2.959 -0.213,-0.793 -0.457,-0.793 -1.646,-0.793 -2.287,0 -3.964,0.061 -5.153,0.092 -1.19,0.061 -1.922,0.093 -2.38,0.093 -0.059,0 -0.579,0 -1.219,-0.032 -0.61,0 -1.311,-0.061 -1.768,-0.061 -0.336,0 -0.488,0.061 -0.488,0.244 0,0.093 0.06,0.184 0.244,0.184 0.274,0 0.639,0.06 0.915,0.121 0.609,0.123 0.761,0.794 0.884,1.678 C 0,-10.703 0,-8.295 0,-5.367 Z" /></g><g
           transform="translate(158.2026,28.1406)"
           id="g76"><path
             id="path78"
             style="fill:#000000;fill-opacity:1;fill-rule:nonzero;stroke:none"
             d="m 0,0 c 0,-2.928 0,-5.336 0.152,-6.617 0.091,-0.884 0.275,-1.555 1.19,-1.678 0.426,-0.06 1.097,-0.121 1.372,-0.121 0.182,0 0.243,-0.091 0.243,-0.184 0,-0.151 -0.151,-0.244 -0.487,-0.244 -1.678,0 -3.598,0.093 -3.751,0.093 -0.154,0 -2.073,-0.093 -2.989,-0.093 -0.334,0 -0.488,0.061 -0.488,0.244 0,0.093 0.062,0.184 0.244,0.184 0.275,0 0.641,0.061 0.915,0.121 0.61,0.123 0.763,0.794 0.885,1.678 0.152,1.281 0.152,3.689 0.152,6.617 v 12.9 l -4.513,-0.062 c -1.892,-0.029 -2.623,-0.244 -3.112,-0.976 -0.335,-0.517 -0.426,-0.732 -0.517,-0.944 -0.092,-0.244 -0.183,-0.306 -0.306,-0.306 -0.091,0 -0.153,0.092 -0.153,0.275 0,0.305 0.611,2.927 0.674,3.171 0.058,0.183 0.181,0.581 0.302,0.581 0.214,0 0.52,-0.306 1.342,-0.368 0.885,-0.09 2.044,-0.152 2.41,-0.152 H 5.001 c 0.976,0 1.677,0.062 2.165,0.152 0.457,0.062 0.731,0.154 0.855,0.154 0.151,0 0.151,-0.184 0.151,-0.367 0,-0.914 -0.092,-3.019 -0.092,-3.354 0,-0.273 -0.092,-0.396 -0.213,-0.396 -0.152,0 -0.213,0.089 -0.244,0.518 l -0.03,0.336 C 7.501,12.076 6.77,12.777 3.842,12.838 L 0,12.9 Z" /></g><g
           transform="translate(99.8247,89.0596)"
           id="g80"><path
             id="path82"
             style="fill:#000000;fill-opacity:1;fill-rule:nonzero;stroke:none"
             d="m 0,0 c -0.631,0 -1.23,0.025 -1.778,0.076 -11.667,1.094 -23.301,8.773 -22.996,23.462 0.226,10.947 5.919,18.763 16.031,22.007 1.672,0.537 3.374,0.809 5.058,0.809 2.135,0 4.267,-0.427 6.517,-1.303 C 4.343,44.463 5.361,43.503 5.859,42.2 6.817,39.69 5.405,36.861 5.345,36.742 l -3.532,-7.38 -0.243,3.25 c 0,0 -0.026,0.309 -0.147,0.779 -0.512,1.985 -2.236,5.316 -8.021,5.316 -3.021,0 -5.467,-0.955 -7.27,-2.838 C -17.786,31.777 -17.523,24.632 -17.52,24.561 -16.219,5.648 -0.694,5.431 -0.034,5.431 0.019,5.435 0.063,5.438 0.107,5.438 H 0.976 V 0.004 Z" /></g><g
           transform="translate(96.1401,136.2813)"
           id="g84"><path
             id="path86"
             style="fill:#ffffff;fill-opacity:1;fill-rule:nonzero;stroke:none"
             d="m 0,0 v 0 c -1.775,0 -3.566,-0.286 -5.324,-0.85 -10.492,-3.366 -16.4,-11.469 -16.634,-22.817 -0.315,-15.245 11.717,-23.211 23.782,-24.343 0.577,-0.053 1.202,-0.08 1.861,-0.08 H 3.8 l 1.728,0.008 v 1.728 3.702 1.736 H 3.792 c -0.058,0 -0.116,-0.003 -0.175,-0.007 -1.042,0.011 -15.359,0.486 -16.587,18.343 0,0.022 -0.229,6.835 3.424,10.637 1.654,1.723 3.824,2.56 6.633,2.56 5.2,0 6.73,-2.923 7.18,-4.664 0.099,-0.387 0.124,-0.639 0.124,-0.641 l 0.576,-6.273 2.721,5.667 2.133,4.459 c 0.152,0.296 1.61,3.306 0.534,6.123 C 9.95,-3.652 9.011,-2.209 6.831,-1.361 4.479,-0.445 2.245,0 0,0 m 0,-1.736 c 2.433,0 4.521,-0.589 6.201,-1.243 4.731,-1.842 2.054,-7.107 2.054,-7.107 l -2.134,-4.459 c 0,0 -0.027,0.367 -0.173,0.931 -0.485,1.882 -2.296,5.968 -8.861,5.968 -12.443,0 -11.79,-15.053 -11.79,-15.053 1.366,-19.856 18.002,-19.96 18.353,-19.96 h 0.006 c 0.045,0 0.091,0.007 0.136,0.007 v -3.702 H 3.685 c -0.589,0 -1.16,0.023 -1.699,0.073 -12.108,1.135 -22.491,8.908 -22.208,22.579 0.245,11.869 6.999,18.494 15.429,21.199 1.715,0.55 3.317,0.767 4.793,0.767" /></g><g
           transform="translate(99.606,95.876)"
           id="g88"><path
             id="path90"
             style="fill:#000000;fill-opacity:1;fill-rule:nonzero;stroke:none"
             d="m 0,0 c -1.651,0 -2.175,1.327 -3.913,5.724 l -22.842,57.157 c -1.975,5.027 -3.17,5.766 -6.081,6.598 -1.262,0.337 -2.774,0.337 -3.271,0.337 -0.961,0 -1.607,0.609 -1.607,1.516 0,1.513 1.967,1.513 3.268,1.513 2.972,0 6.317,-0.124 8.529,-0.206 1.093,-0.041 1.912,-0.072 2.276,-0.072 0.307,0 0.977,0.032 1.863,0.074 1.747,0.081 4.386,0.204 6.727,0.204 1.175,0 3.361,0 3.361,-1.513 0,-0.456 -0.175,-1.516 -1.791,-1.516 -1.368,0 -2.636,-0.156 -3.157,-0.388 -0.572,-0.26 -0.686,-0.583 -0.686,-1.053 0,-1.023 1.156,-4.025 2.378,-7.203 L 2.085,15.761 c 5.797,13.725 17.029,43.118 18.879,49.174 0.201,0.602 0.794,2.367 0.794,3.255 0,0.359 -0.089,0.998 -0.669,1.32 -0.969,0.306 -2.239,0.306 -3.173,0.306 -1.7,0 -1.884,0.995 -1.884,1.423 0,1.606 1.958,1.606 2.9,1.606 2.406,0 5.002,-0.115 6.897,-0.199 0.996,-0.044 1.768,-0.079 2.152,-0.079 0.168,0 0.659,0.028 1.332,0.063 1.5,0.081 4.008,0.215 5.874,0.215 2.013,0 2.436,-0.823 2.436,-1.513 0,-0.456 -0.192,-1.516 -1.977,-1.516 -0.599,0 -2.425,0 -3.967,-0.974 C 30.652,68.129 29.342,66.618 26.941,60.574 26.142,58.54 23.104,51.22 19.585,42.746 l -2.992,-7.21 -0.886,-2.121 C 10.469,20.876 6.684,11.817 4.666,7.517 4.04,6.177 3.544,5.074 3.139,4.174 1.697,0.968 1.262,0 0,0" /></g><g
           transform="translate(134.7925,169.5889)"
           id="g92"><path
             id="path94"
             style="fill:#ffffff;fill-opacity:1;fill-rule:nonzero;stroke:none"
             d="m 0,0 c -1.889,0 -4.412,-0.135 -5.92,-0.215 -0.568,-0.031 -1.155,-0.062 -1.285,-0.062 -0.354,0 -1.17,0.036 -2.114,0.078 -1.904,0.084 -4.51,0.199 -6.936,0.199 -0.932,0 -3.767,0 -3.767,-2.474 0,-0.234 0.077,-2.291 2.751,-2.291 0.84,0 1.971,0 2.803,-0.233 0.139,-0.12 0.171,-0.345 0.171,-0.524 0,-0.341 -0.129,-1.131 -0.742,-2.957 -1.772,-5.801 -12.048,-32.744 -18.019,-47.119 l -16.201,43.205 -0.063,0.164 c -1.087,2.826 -2.32,6.029 -2.32,6.891 0,0.109 0.011,0.159 0.015,0.174 h 0.001 c 0.005,0 0.053,0.04 0.166,0.092 0.329,0.146 1.427,0.307 2.792,0.307 1.963,0 2.659,1.284 2.659,2.384 0,2.381 -2.963,2.381 -4.229,2.381 -2.36,0 -5.012,-0.124 -6.767,-0.205 -0.831,-0.039 -1.549,-0.072 -1.822,-0.072 -0.337,0 -1.178,0.031 -2.244,0.07 C -63.29,-0.124 -66.644,0 -69.632,0 c -1.343,0 -4.137,0 -4.137,-2.381 0,-1.404 1.018,-2.384 2.475,-2.384 0.469,0 1.896,0 3.061,-0.312 2.474,-0.707 3.566,-1.191 5.481,-6.067 l 22.629,-56.619 0.216,-0.546 c 1.804,-4.564 2.479,-6.272 4.72,-6.272 1.824,0 2.441,1.372 3.931,4.685 0.404,0.898 0.899,1.997 1.523,3.334 2.024,4.315 5.812,13.38 11.053,25.927 l 0.887,2.121 2.992,7.21 c 3.521,8.481 6.562,15.805 7.365,17.85 2.293,5.774 3.526,7.233 4.423,7.869 1.325,0.82 2.94,0.82 3.473,0.82 2.765,0 2.845,2.14 2.845,2.384 C 3.305,-1.666 2.982,0 0,0 m 0,-1.736 c 1.016,0 1.568,-0.185 1.568,-0.645 0,-0.464 -0.369,-0.648 -1.108,-0.648 -0.645,0 -2.677,0 -4.432,-1.108 -1.2,-0.832 -2.586,-2.402 -5.08,-8.682 -1.016,-2.585 -5.633,-13.667 -10.344,-25.025 -5.633,-13.484 -9.788,-23.459 -11.911,-27.983 -2.587,-5.539 -2.955,-7.018 -3.88,-7.018 -1.107,0 -1.569,1.293 -3.323,5.727 l -22.626,56.609 c -2.031,5.171 -3.416,6.187 -6.648,7.11 -1.386,0.37 -2.955,0.37 -3.51,0.37 -0.553,0 -0.738,0.277 -0.738,0.648 0,0.553 0.922,0.645 2.4,0.645 4.433,0 9.697,-0.278 10.805,-0.278 0.924,0 5.079,0.278 8.589,0.278 1.662,0 2.493,-0.185 2.493,-0.645 0,-0.464 -0.278,-0.648 -0.923,-0.648 -1.016,0 -2.679,-0.093 -3.51,-0.462 -1.016,-0.462 -1.2,-1.2 -1.2,-1.847 0,-1.201 1.107,-4.063 2.493,-7.665 l 17.731,-47.282 c 5.356,12.374 17.731,44.605 19.761,51.253 0.465,1.385 0.832,2.678 0.832,3.51 0,0.739 -0.276,1.661 -1.199,2.123 -1.109,0.37 -2.495,0.37 -3.511,0.37 -0.553,0 -1.015,0.092 -1.015,0.555 0,0.553 0.555,0.738 2.031,0.738 3.694,0 7.942,-0.278 9.05,-0.278 0.555,0 4.524,0.278 7.205,0.278" /></g><g
           transform="translate(99.064,94.4893)"
           id="g96"><path
             id="path98"
             style="fill:#000000;fill-opacity:1;fill-rule:nonzero;stroke:none"
             d="m 0,0 0.86,0.008 c 8.032,0.075 14.443,6.936 16.711,10.554 1.707,2.72 3.164,7.936 1.653,13.68 -1.908,7.248 -7.815,13.594 -17.556,18.862 l -0.073,0.04 -3.486,2.866 c -9.46,7.764 -10.195,18.552 -10.195,21.674 0,8.7 6.67,14.545 16.599,14.545 2.728,0 5.039,-0.249 7.268,-0.783 1.421,-0.3 1.946,-0.356 2.458,-0.356 1.415,0 1.626,-0.878 1.626,-1.401 0,-0.091 -0.013,-0.291 -0.038,-0.605 -0.08,-1.022 -0.267,-3.417 -0.267,-7.45 0,-0.849 0,-2.615 -1.398,-2.615 -1.255,0 -1.406,1.226 -1.471,1.75 -0.076,0.932 -0.535,2.839 -0.888,3.491 -0.585,1.074 -2.608,3.574 -8.737,3.574 -5.07,0 -8.477,-3.194 -8.477,-7.947 0,-3.241 1.016,-7.754 8.938,-13.943 L 5.596,54.318 C 17.46,48.021 24.913,39.958 27.745,30.351 30.395,21.368 28.101,13.613 26.328,10.447 24.466,7.121 20.418,2.068 15.137,-1.225 10.879,-3.879 5.68,-5.411 0.871,-5.43 L 0,-5.433 Z" /></g><g
           transform="translate(103.5767,177.5869)"
           id="g100"><path
             id="path102"
             style="fill:#ffffff;fill-opacity:1;fill-rule:nonzero;stroke:none"
             d="m 0,0 c -10.448,0 -17.467,-6.194 -17.467,-15.414 0,-3.218 0.758,-14.339 10.513,-22.345 l 3.42,-2.812 0.129,-0.107 0.147,-0.079 c 9.523,-5.149 15.285,-11.313 17.129,-18.32 1.442,-5.476 0.067,-10.424 -1.548,-12.997 -2.181,-3.479 -8.328,-10.076 -15.984,-10.148 l -1.72,-0.015 v -1.721 -3.701 -1.743 l 1.743,0.006 c 4.964,0.019 10.33,1.599 14.722,4.336 5.42,3.381 9.576,8.57 11.489,11.985 1.839,3.285 4.223,11.314 1.492,20.574 -2.895,9.82 -10.467,18.046 -22.506,24.452 l -2.005,1.577 c -7.632,5.961 -8.61,10.218 -8.61,13.261 0,4.3 2.987,7.079 7.61,7.079 5.822,0 7.575,-2.389 7.973,-3.121 0.295,-0.544 0.719,-2.318 0.783,-3.109 l 0.003,-0.037 0.003,-0.037 c 0.257,-2.076 1.411,-2.511 2.333,-2.511 1.504,0 2.266,1.172 2.266,3.484 0,3.999 0.186,6.369 0.265,7.381 0.027,0.35 0.041,0.572 0.041,0.673 0,1.047 -0.654,2.269 -2.494,2.269 -0.454,0 -0.933,0.054 -2.301,0.343 C 5.173,-0.256 2.799,0 0,0 m 0,-1.736 c 2.962,0 5.164,-0.304 7.066,-0.76 1.441,-0.305 2.049,-0.38 2.661,-0.38 0.608,0 0.757,-0.153 0.757,-0.533 0,-0.379 -0.305,-2.886 -0.305,-8.054 0,-1.216 -0.151,-1.748 -0.53,-1.748 -0.457,0 -0.534,0.38 -0.609,0.988 -0.073,0.912 -0.533,2.963 -0.987,3.8 -0.455,0.836 -2.508,4.027 -9.499,4.027 -5.242,0 -9.346,-3.267 -9.346,-8.815 0,-4.331 1.977,-8.927 9.272,-14.626 l 2.127,-1.673 c 28.431,-15.052 23.79,-36.752 20.451,-42.717 -1.527,-2.726 -5.439,-7.958 -10.893,-11.359 -4.52,-2.817 -9.691,-4.058 -13.81,-4.073 v 3.701 c 8.172,0.076 14.871,6.864 17.439,10.961 3.202,5.102 7.091,21.16 -16.226,33.767 l -3.421,2.813 c -8.053,6.61 -9.878,15.836 -9.878,21.003 0,8.13 6.079,13.678 15.731,13.678" /></g><g
           transform="translate(99.7964,93.6221)"
           id="g104"><path
             id="path106"
             style="fill:#000000;fill-opacity:1;fill-rule:nonzero;stroke:none"
             d="m 0,0 c 0,0 -2.911,-0.014 -6.418,1.386 l -1.674,-3.715 c 2.047,-0.649 4.203,-1.084 6.422,-1.293 2.28,-0.213 5.051,0.024 7.92,0.755 L 4.336,0.628 C 2.95,0.231 1.501,0 0,0" /></g><g
           transform="translate(176.1489,69.1885)"
           id="g108"><path
             id="path110"
             style="fill:#000000;fill-opacity:1;fill-rule:nonzero;stroke:none"
             d="M 0,0 V 0.715 C 1.13,1.401 1.899,2.038 2.31,2.626 2.608,3.059 2.758,3.567 2.758,4.154 2.758,4.509 2.691,4.77 2.559,4.936 2.438,5.102 2.293,5.185 2.126,5.185 2.016,5.185 1.861,5.146 1.661,5.068 1.362,4.969 1.118,4.919 0.931,4.919 c -0.444,0 -0.836,0.166 -1.181,0.499 -0.342,0.332 -0.515,0.748 -0.515,1.246 0,0.565 0.173,1.002 0.515,1.313 0.478,0.421 1.03,0.63 1.662,0.63 0.753,0 1.425,-0.314 2.011,-0.947 C 4.01,7.029 4.303,6.248 4.303,5.318 4.303,4.011 3.816,2.819 2.842,1.745 2.188,1.036 1.241,0.455 0,0" /></g></g></g></g></svg>